<svg width="87" height="121" viewBox="0 0 87 121" fill="none" xmlns="http://www.w3.org/2000/svg">
<path d="M12.2568 19.6292C13.9603 17.3871 10.6007 14.7624 8.83799 16.9961C-5.30226 34.7417 -2.06702 62.4274 15.6253 76.4897C19.4483 79.6486 21.6403 84.3894 21.6403 89.4958V99.4398C21.6403 102.565 23.7237 105.184 26.5654 106.064C29.1518 125.664 57.0248 125.703 59.6263 106.064C62.4681 105.184 64.5514 102.565 64.5514 99.4398V89.4958C64.5514 84.4136 66.7856 79.6402 70.6807 76.3992C80.5848 68.1562 86.2651 56.0645 86.2651 43.227C86.6811 18.0882 63.1868 -3.03108 38.1287 0.358716C30.4443 1.21881 23.0883 4.20278 16.8516 8.98786C15.9073 9.71252 15.7282 11.0671 16.4553 12.0119C17.1783 12.9556 18.5357 13.1378 19.482 12.4089C44.9654 -7.17676 81.948 11.2575 81.9484 43.2273C81.9485 54.7805 76.8352 65.6631 67.9196 73.0835C63.036 77.146 60.2348 83.1286 60.2348 89.4958V99.4398C60.2348 100.902 59.0439 102.092 57.5791 102.092H28.6127C27.1478 102.092 25.9569 100.902 25.9569 99.4398V95.6217H51.5995C54.4361 95.5619 54.4406 91.3634 51.5994 91.3074H38.7782V76.1896C38.7667 70.9835 40.2159 66.5031 43.1603 62.5022H51.9451C63.4322 62.5022 72.7757 53.1637 72.7757 41.685V35.9941C72.8198 34.3923 70.9145 33.2755 69.5425 34.1236C64.3956 37.0892 58.4067 38.0158 52.6723 39.6501C44.0875 42.0846 38.5919 50.8185 39.7972 59.8017C38.7376 61.2439 37.784 62.7646 37.0183 64.3781C36.6587 65.3219 36.5851 65.3328 36.2237 64.3779C34.4712 60.493 31.4017 57.0209 28.1426 54.2655C27.2426 53.4913 25.8789 53.5924 25.0991 54.4972C24.3234 55.401 24.4267 56.7628 25.3309 57.5391C31.0446 62.194 34.5772 68.5963 34.4615 76.1897L34.4616 91.3075H25.9569C26.3507 84.3607 23.7256 77.5052 18.3753 73.1647C2.46432 60.5164 -0.473177 35.5984 12.2568 19.6292ZM43.0969 116.566C37.0401 116.566 32.0011 112.17 30.9796 106.406H55.2121C54.191 112.17 49.1537 116.566 43.0969 116.566ZM53.8526 43.8C58.7856 42.402 63.6185 41.5587 68.4591 39.4763C69.4166 49.2955 61.9991 58.2505 51.9449 58.1878L47.2312 58.1879C50.8595 54.902 54.9919 52.3503 59.5561 50.6949C60.6753 50.2862 61.2507 49.0475 60.8418 47.9279C60.4308 46.8082 59.1894 46.2332 58.0723 46.6439C52.9099 48.5195 48.2564 51.3994 44.1607 55.1515C45.0164 49.8927 48.7314 45.2527 53.8526 43.8Z" fill="#101D42"/>
<path d="M65.2458 27.8869C65.914 28.8268 67.2227 29.0316 68.1455 28.3706C69.0795 27.7043 69.2968 26.4074 68.6288 25.4734C66.4662 22.4455 63.8326 19.8161 60.805 17.6592C58.5849 16.0953 56.1811 19.4514 58.3887 21.0401C61.0425 22.9302 63.3493 25.2331 65.2458 27.8869Z" fill="#101D42"/>
</svg>
