<svg width="410" height="410" viewBox="0 0 410 410" fill="none" xmlns="http://www.w3.org/2000/svg">
<path d="M204.8 0C91.875 0 0 91.875 0 204.8C0 238.67 8.27406 271.126 23.3869 299.951C22.9844 300.332 22.5541 300.666 22.16 301.06C-0.334999 323.555 -0.334999 360.155 22.16 382.65C43.81 404.3 121.945 409.385 125.265 409.59C125.37 409.595 125.475 409.6 125.58 409.6C126.935 409.6 128.235 409.065 129.2 408.1C130.24 407.06 130.78 405.63 130.69 404.165C130.485 400.845 125.395 322.71 103.745 301.06C84.1684 281.484 53.9137 278.969 31.5709 293.462C17.785 266.509 10.24 236.3 10.24 204.8C10.24 97.52 97.52 10.24 204.8 10.24C312.08 10.24 399.36 97.52 399.36 204.8C399.36 312.08 312.08 399.36 204.8 399.36C201.97 399.36 199.68 401.65 199.68 404.48C199.68 407.31 201.97 409.6 204.8 409.6C317.725 409.6 409.6 317.725 409.6 204.8C409.6 91.875 317.725 0 204.8 0ZM62.95 294.425C75.105 294.425 87.255 299.05 96.505 308.3C110.955 322.75 117.965 374.06 120.04 398.94C95.16 396.865 43.85 389.86 29.4 375.41C11.1953 357.205 10.9462 327.782 28.5697 309.219C32.9103 316.539 37.71 323.582 42.955 330.325V360.53C42.955 363.36 45.245 365.65 48.075 365.65C50.905 365.65 53.195 363.36 53.195 360.53V342.506C65.5678 356.078 79.8287 368.166 95.885 378.27C98.28 379.77 101.44 379.06 102.945 376.66C104.45 374.27 103.73 371.105 101.335 369.6C84.7053 359.136 70.0975 346.435 57.6494 332.095H81.63C84.46 332.095 86.75 329.805 86.75 326.975C86.75 324.145 84.46 321.855 81.63 321.855H49.3372C44.6553 315.654 40.3737 309.186 36.4841 302.488C44.455 297.125 53.6981 294.425 62.95 294.425Z" fill="black"/>
<path d="M214.4 326.539C214.402 326.539 214.403 326.54 214.405 326.54C214.408 326.54 214.411 326.539 214.414 326.539C256.691 324.171 293.259 300.164 313.252 265.446C313.318 265.307 313.427 265.194 313.48 265.05C323.634 247.262 329.47 226.706 329.47 204.8C329.47 155.056 299.514 112.2 256.708 93.2512C256.558 93.1831 256.421 93.1037 256.265 93.05C241.327 86.5094 224.849 82.855 207.525 82.855C140.285 82.855 85.5801 137.56 85.5801 204.8C85.5801 221.99 89.1745 238.35 95.6207 253.197C95.6782 253.364 95.7598 253.509 95.8332 253.667C114.71 296.642 157.658 326.745 207.525 326.745C209.833 326.745 212.123 326.666 214.4 326.539ZM220.077 315.781C220.329 300.131 212.562 283.305 212.33 282.85C212.21 282.515 200.325 249.27 215.425 229.995C230.16 211.18 248.595 216.545 249.35 216.775C249.62 216.86 249.92 216.925 250.2 216.965C251.568 217.161 283.311 222.252 302.833 262.996C285.251 291.684 255.086 311.847 220.077 315.781ZM311.932 165.142C303.643 168.67 285.602 173.514 269.3 158.635C262.33 152.28 254.85 151.44 248.84 150.77C240.91 149.88 235.67 149.29 231.1 137.64C224.498 120.789 247.569 107.259 254.664 103.562C280.875 115.816 301.566 137.944 311.932 165.142ZM171.569 99.0662C176.311 102.994 187.85 113.575 189.545 124.8C190.225 129.295 189.185 133.325 186.365 137.125C169.55 159.77 166.16 166.175 165.105 188.745C163.833 215.966 155.415 246.762 103.889 246.407C98.7032 233.538 95.8201 219.504 95.8201 204.8C95.8201 155.784 127.568 114.071 171.569 99.0662ZM108.627 256.647C172.22 254.795 174.56 205.79 175.335 189.225C176.27 169.26 178.86 164.405 194.585 143.225C199.055 137.205 200.765 130.48 199.665 123.24C197.959 112.01 189.633 102.01 183.234 95.7862C191.06 94.0437 199.182 93.095 207.525 93.095C219.763 93.095 231.535 95.1012 242.563 98.755C230.782 106.391 213.757 121.449 221.57 141.38C228.39 158.78 239.095 159.98 247.7 160.945C253.165 161.555 257.885 162.085 262.4 166.2C272.585 175.495 284.1 178.97 294.885 178.97C302.184 178.97 309.146 177.377 315.141 174.926C317.786 184.442 319.23 194.452 319.23 204.8C319.23 221.667 315.451 237.662 308.728 252.015C287.567 213.934 256.236 207.572 252.015 206.885C248.415 205.885 225.435 200.615 207.365 223.68C188.73 247.465 202.14 284.8 202.885 286.775C202.967 286.952 210.386 303.131 209.795 316.447C209.038 316.462 208.287 316.505 207.525 316.505C164.637 316.505 127.34 292.197 108.627 256.647Z" fill="black"/>
</svg>
