<svg width="15" height="21" viewBox="0 0 15 21" fill="none" xmlns="http://www.w3.org/2000/svg">
<path d="M2.1311 3.41297C2.4273 3.02313 1.84316 2.56677 1.53668 2.95514C-0.921912 6.0406 -0.359396 10.8543 2.7168 13.2994C3.3815 13.8486 3.76264 14.6729 3.76264 15.5608V17.2898C3.76264 17.8331 4.12487 18.2885 4.61897 18.4416C5.06867 21.8495 9.91499 21.8562 10.3673 18.4415C10.8614 18.2885 11.2237 17.8331 11.2237 17.2898V15.5608C11.2237 14.6771 11.6121 13.8472 12.2894 13.2836C14.0114 11.8504 14.9991 9.74802 14.9991 7.51595C15.0714 3.14502 10.9864 -0.527019 6.6295 0.0623705C5.29339 0.211916 4.0144 0.730745 2.93001 1.56273C2.76583 1.68873 2.73468 1.92425 2.86112 2.08852C2.98682 2.25261 3.22283 2.28429 3.38737 2.15756C7.81821 -1.24783 14.2484 1.95736 14.2485 7.516C14.2485 9.52477 13.3595 11.4169 11.8093 12.7071C10.9602 13.4135 10.4731 14.4537 10.4731 15.5608V17.2898C10.4731 17.5439 10.2661 17.7509 10.0114 17.7509H4.97493C4.72023 17.7509 4.51317 17.5439 4.51317 17.2898V16.6259H8.97168C9.46488 16.6155 9.46568 15.8855 8.97167 15.8758H6.74243V13.2472C6.74043 12.342 6.9924 11.563 7.50435 10.8673H9.03178C11.0291 10.8673 12.6536 9.24366 12.6536 7.24784V6.25835C12.6613 5.97985 12.33 5.78566 12.0915 5.93312C11.1966 6.44875 10.1553 6.60986 9.15821 6.89402C7.66557 7.31732 6.71004 8.83589 6.91959 10.3978C6.73537 10.6486 6.56957 10.913 6.43642 11.1935C6.37391 11.3576 6.36111 11.3595 6.29827 11.1935C5.99355 10.518 5.45986 9.91431 4.89319 9.43523C4.73672 9.30062 4.49961 9.3182 4.36402 9.47552C4.22916 9.63265 4.24712 9.86944 4.40433 10.0044C5.39778 10.8138 6.01199 11.927 5.99187 13.2472L5.99189 15.8758H4.51317C4.58163 14.6679 4.1252 13.4759 3.19495 12.7213C0.428475 10.5221 -0.082272 6.18955 2.1311 3.41297ZM7.49333 20.2676C6.44023 20.2676 5.56408 19.5032 5.38648 18.501H9.59982C9.42228 19.5032 8.54643 20.2676 7.49333 20.2676ZM9.36344 7.61558C10.2211 7.3725 11.0614 7.22587 11.9031 6.86381C12.0696 8.57108 10.7799 10.1281 9.03175 10.1172L8.21217 10.1172C8.84302 9.54589 9.56153 9.10223 10.3551 8.8144C10.5497 8.74334 10.6498 8.52797 10.5787 8.3333C10.5072 8.13862 10.2914 8.03863 10.0971 8.11005C9.19953 8.43616 8.39042 8.93689 7.67829 9.58927C7.82708 8.67492 8.473 7.86815 9.36344 7.61558Z" fill="#00C1D9"/>
<path d="M11.3444 4.84877C11.4606 5.01219 11.6881 5.0478 11.8486 4.93287C12.011 4.81703 12.0488 4.59153 11.9326 4.42914C11.5566 3.90267 11.0987 3.44549 10.5723 3.07047C10.1863 2.79855 9.76831 3.38208 10.1521 3.65831C10.6136 3.98695 11.0146 4.38736 11.3444 4.84877Z" fill="#00C1D9"/>
</svg>
