<svg id="Layer_1" enable-background="new 0 0 100 100" height="512" viewBox="0 0 100 100" width="512" xmlns="http://www.w3.org/2000/svg"><path d="m50 10c-22.0556641 0-40 17.9443359-40 40 0 6.6152344 1.6160278 12.9543457 4.567749 18.5842285-.0786133.0743408-.1626587.1396484-.239624.2165527-4.3935547 4.3935547-4.3935547 11.5419922 0 15.9355469 4.2285156 4.2285156 19.4892578 5.2216797 20.1376953 5.2617188.0205078.0009765.0410156.0019531.0615235.0019531.2646484 0 .5185547-.1044922.7070312-.2929688.203125-.203125.3085938-.4824219.2910156-.7685547-.0400391-.6484375-1.0341797-15.9091797-5.2626953-20.1376953-3.8235474-3.8234863-9.732666-4.3145752-14.0964966-1.4840088-2.6925659-5.2642822-4.1661987-11.1644286-4.1661987-17.3167724 0-20.953125 17.046875-38 38-38s38 17.046875 38 38-17.046875 38-38 38c-.5527344 0-1 .4472656-1 1s.4472656 1 1 1c22.0556641 0 40-17.9443359 40-40s-17.9443359-40-40-40zm-27.7050781 57.5048828c2.3740234 0 4.7470703.9033203 6.5537109 2.7099609 2.8222656 2.8222656 4.1914062 12.84375 4.5966797 17.703125-4.859375-.4052734-14.8808594-1.7734375-17.703125-4.5957031-3.555603-3.5556641-3.604248-9.3022461-.1621704-12.9279785.8477783 1.4296875 1.7852173 2.8054199 2.8096313 4.1223145v5.8994141c0 .5527344.4472656 1 1 1s1-.4472656 1-1v-3.5202637c2.4165649 2.6506348 5.2019043 5.0117188 8.3378906 6.9851074.4677734.2929688 1.0849609.1542969 1.3789062-.3144531.2939453-.4667969.1533203-1.0849609-.3144531-1.3789062-3.2479858-2.0437012-6.1010742-4.5244141-8.5323486-7.3251953h4.6837158c.5527344 0 1-.4472656 1-1s-.4472656-1-1-1h-6.3071899c-.9144287-1.2111816-1.7506714-2.4743652-2.510376-3.7825928 1.5568238-1.0474854 3.3621216-1.5748292 5.1691285-1.5748292z"/><path d="m51.874939 73.7772217c.0003662 0 .0006714.0001221.0010376.0001221.0006104 0 .0011597-.0002441.00177-.0002441 8.2571411-.4624023 15.3994141-5.1513672 19.3042603-11.9321289.0128784-.0270996.0341187-.0493164.0444946-.0773926 1.9832763-3.4741212 3.1231079-7.4890137 3.1231079-11.7675782 0-9.7156982-5.850769-18.0859375-14.2113037-21.7868652-.0293579-.0133057-.0560303-.0288086-.0865479-.0393066-2.9176025-1.2774658-6.1360474-1.9912109-9.5195312-1.9912109-13.1328125 0-23.8173828 10.6845703-23.8173828 23.8173828 0 3.3574219.7020264 6.5527344 1.9610596 9.4526367.0112305.0324707.0271606.060791.0415039.0916748 3.6868896 8.3936768 12.0751343 14.2730713 21.8148193 14.2730713.4508056-.0000001.8980102-.0153809 1.3427124-.0401612zm1.1088867-2.1011963c.0490723-3.0566406-1.4678345-6.3430176-1.5131226-6.4318848-.0234375-.0654297-2.3447266-6.5585938.6044922-10.3232422 2.8779297-3.6748047 6.4785156-2.6269531 6.6259766-2.5820312.0527344.0166016.1113281.0292969.1660156.0371094.2671509.0383301 6.467041 1.0327148 10.2797852 8.9904785-3.43396 5.6030273-9.3255616 9.5411377-16.163147 10.3095703zm17.9403686-29.4216309c-1.6189575.6889648-5.1426392 1.6350098-8.3265381-1.2709961-1.3613281-1.2412109-2.8222656-1.4052734-3.9960938-1.5361328-1.5488281-.1738281-2.5722656-.2890625-3.4648438-2.5644531-1.2894897-3.2912598 3.2165527-5.9337158 4.602417-6.6557617 5.1192628 2.3933105 9.1605226 6.7152099 11.1850587 12.0273437zm-27.4145507-12.9055175c.9260254.7670898 3.1797485 2.8337402 3.5108643 5.026123.1328125.8779297-.0703125 1.6650391-.6210938 2.4072266-3.2841797 4.4228516-3.9462891 5.6738281-4.1523438 10.0820312-.2485352 5.3166504-1.8926392 11.3314209-11.9563599 11.262207-1.0127563-2.5135498-1.5758666-5.2546386-1.5758666-8.1264648 0-9.5734863 6.2006835-17.720459 14.7947998-20.651123zm-12.2934571 30.7774658c12.4204712-.3616943 12.8775635-9.9329834 13.0289307-13.168335.1826172-3.8994141.6884766-4.8476562 3.7597656-8.984375.8730469-1.1757812 1.2070312-2.4892578.9921875-3.9033203-.333252-2.1933594-1.9593506-4.1464844-3.2092896-5.3620605 1.5285645-.340332 3.1148682-.5256348 4.7444458-.5256348 2.3902588 0 4.6893921.3918457 6.8433228 1.1054688-2.3009033 1.491333-5.6261597 4.432373-4.1001587 8.3251953 1.3320312 3.3984375 3.4228516 3.6328125 5.1035156 3.8212891 1.0673828.1191406 1.9892578.2226562 2.8710938 1.0263672 1.9892578 1.8154297 4.2382812 2.4941406 6.3447266 2.4941406 1.4256592 0 2.7853394-.3110352 3.9562378-.7897949.5166016 1.8586426.798645 3.8137207.798645 5.8347168 0 3.2944336-.7380981 6.418457-2.0511475 9.2216797-4.1331177-7.4377441-10.2524414-8.6801758-11.0767822-8.8144531-.703125-.1953125-5.1914062-1.2246094-8.7207031 3.2802734-3.6396484 4.6455078-1.0205078 11.9375-.875 12.3232422.0159302.0345459 1.4650879 3.194458 1.3496704 5.7954102-.1480103.0029297-.2946777.0112305-.4434204.0112305-8.376587-.0000002-15.6611939-4.7476809-19.3160401-11.6910402z"/></svg>