<svg width="128" height="137" viewBox="0 0 128 137" fill="none" xmlns="http://www.w3.org/2000/svg">
<mask id="path-1-outside-1_1041_532" maskUnits="userSpaceOnUse" x="0" y="0" width="128" height="137" fill="black">
<rect fill="white" width="128" height="137"/>
<path fill-rule="evenodd" clip-rule="evenodd" d="M64.2582 66.2064C53.4944 66.2064 44.7274 57.4394 44.7274 46.6757C44.7274 35.9119 53.4944 27.1449 64.2582 27.1449C75.0531 27.1449 83.8201 35.9119 83.8201 46.6757C83.8201 57.4394 75.0531 66.2064 64.2582 66.2064ZM108.998 124.518C100.574 123.613 94.0222 116.5 94.0222 107.857V92.9129C94.0222 91.9145 94.8334 91.1034 95.8318 91.1034H102.29V81.4316C102.29 79.0605 105.909 79.0605 105.909 81.4316V91.1034H115.674V81.4316C115.674 79.0605 119.262 79.0605 119.262 81.4316V91.1034H125.752C126.75 91.1034 127.53 91.9145 127.53 92.9129V107.857C127.53 116.5 120.978 123.613 112.586 124.518V134.408C112.586 136.779 108.998 136.779 108.998 134.408V124.518ZM97.6101 94.6913V107.857C97.6101 115.127 103.538 121.023 110.776 121.023C118.046 121.023 123.942 115.127 123.942 107.857V94.6913H97.6101ZM110.776 113.723C107.563 113.723 104.942 111.102 104.942 107.857C104.942 104.644 107.563 102.023 110.776 102.023C114.021 102.023 116.642 104.644 116.642 107.857C116.642 111.102 114.021 113.723 110.776 113.723ZM110.776 105.611C107.812 105.611 107.812 110.104 110.776 110.104C113.74 110.104 113.74 105.611 110.776 105.611ZM11.2195 136.249C10.1587 136.249 9.31633 135.281 9.44113 134.221L11.9059 113.192L3.26368 115.532C1.73492 115.938 0.455752 114.284 1.23573 112.88L18.2705 83.3971C19.2065 81.7748 21.6712 82.4612 21.64 84.3331L21.172 102.335L29.0966 101.243C30.5942 101.056 31.655 102.647 30.9062 103.926L12.7794 135.344C12.4363 135.905 11.8435 136.249 11.2195 136.249ZM14.0274 108.981C15.0882 108.981 15.9306 109.916 15.8058 111.008L14.0274 125.984L25.9455 105.33L19.5809 106.204C18.4577 106.36 17.4905 105.486 17.5217 104.363L17.8649 91.3217L6.5396 110.915L14.0274 108.981ZM71.434 92.3201H57.1135C56.2088 92.3201 55.46 91.6649 55.3352 90.7602L53.744 78.3429C49.4697 76.9077 45.5074 74.6302 42.1379 71.635L30.563 76.4709C29.7206 76.8141 28.7534 76.4709 28.3167 75.6909L21.1408 63.3048C20.704 62.5249 20.8912 61.5265 21.6088 60.9649L31.5926 53.3835C30.6878 48.9532 30.6878 44.3669 31.5926 39.9678L21.6088 32.3552C20.8912 31.8248 20.704 30.8265 21.1408 30.0465L28.3167 17.6292C28.7534 16.8492 29.7206 16.5372 30.563 16.8804L42.1379 21.7163C45.5074 18.7212 49.4697 16.4124 53.744 15.0085L55.3352 2.59116C55.46 1.68638 56.2088 1 57.1135 1H71.434C72.3388 1 73.0875 1.68638 73.2123 2.59116L74.8035 15.0085C79.0778 16.4124 83.0401 18.7212 86.4096 21.7163L97.9845 16.8804C98.8269 16.5372 99.7941 16.8492 100.231 17.6292L107.407 30.0465C107.843 30.8265 107.656 31.8248 106.939 32.3552L96.9549 39.9678C97.8597 44.3669 97.8597 48.9532 96.9549 53.3835L106.939 60.9649C107.656 61.5265 107.843 62.5249 107.407 63.3048L100.231 75.6909C99.7941 76.4709 98.8269 76.8141 97.9845 76.4709L86.4096 71.635C83.0401 74.6302 79.0778 76.9077 74.8035 78.3429L73.2123 90.7602C73.0875 91.6649 72.3388 92.3201 71.434 92.3201ZM58.7047 88.7322H69.8428L71.4028 76.7517C71.4964 76.0341 71.9956 75.4413 72.682 75.2541C77.1746 73.9126 81.3865 71.479 84.8184 68.2343C85.3176 67.7351 86.0976 67.5791 86.7528 67.8599L97.9221 72.5398L103.476 62.8681L93.8662 55.5362C92.2751 54.3195 94.0534 52.2915 94.0534 46.6757C94.0534 41.0598 92.2751 39.0319 93.8662 37.8151L103.476 30.4521L97.9221 20.8115L86.7528 25.4602C86.0976 25.741 85.3176 25.6162 84.8184 25.117C81.3865 21.8411 77.1746 19.4387 72.682 18.0972C71.9956 17.91 71.4964 17.3172 71.4028 16.5996L69.8428 4.61911H58.7047L57.1447 16.5996C57.0511 17.3172 56.552 17.91 55.8656 18.0972C51.3729 19.4387 47.161 21.8411 43.7291 25.117C43.2299 25.6162 42.4811 25.741 41.7947 25.4602L30.6254 20.8115L25.0719 30.4521L34.6813 37.8151C36.2725 39.0319 34.4941 41.0598 34.4941 46.6757C34.4941 52.2915 36.2725 54.3195 34.6813 55.5362L25.0719 62.8681L30.6254 72.5398L41.7947 67.8599C42.4499 67.5791 43.2299 67.7351 43.7291 68.2343C47.161 71.479 51.3729 73.9126 55.8656 75.223C56.552 75.4413 57.0511 76.0341 57.1447 76.7205L58.7047 88.7322ZM64.2582 30.7329C55.4912 30.7329 48.3466 37.8775 48.3466 46.6757C48.3466 55.4426 55.4912 62.6185 64.2582 62.6185C73.0563 62.6185 80.201 55.4426 80.201 46.6757C80.201 37.8775 73.0563 30.7329 64.2582 30.7329Z"/>
</mask>
<path fill-rule="evenodd" clip-rule="evenodd" d="M64.2582 66.2064C53.4944 66.2064 44.7274 57.4394 44.7274 46.6757C44.7274 35.9119 53.4944 27.1449 64.2582 27.1449C75.0531 27.1449 83.8201 35.9119 83.8201 46.6757C83.8201 57.4394 75.0531 66.2064 64.2582 66.2064ZM108.998 124.518C100.574 123.613 94.0222 116.5 94.0222 107.857V92.9129C94.0222 91.9145 94.8334 91.1034 95.8318 91.1034H102.29V81.4316C102.29 79.0605 105.909 79.0605 105.909 81.4316V91.1034H115.674V81.4316C115.674 79.0605 119.262 79.0605 119.262 81.4316V91.1034H125.752C126.75 91.1034 127.53 91.9145 127.53 92.9129V107.857C127.53 116.5 120.978 123.613 112.586 124.518V134.408C112.586 136.779 108.998 136.779 108.998 134.408V124.518ZM97.6101 94.6913V107.857C97.6101 115.127 103.538 121.023 110.776 121.023C118.046 121.023 123.942 115.127 123.942 107.857V94.6913H97.6101ZM110.776 113.723C107.563 113.723 104.942 111.102 104.942 107.857C104.942 104.644 107.563 102.023 110.776 102.023C114.021 102.023 116.642 104.644 116.642 107.857C116.642 111.102 114.021 113.723 110.776 113.723ZM110.776 105.611C107.812 105.611 107.812 110.104 110.776 110.104C113.74 110.104 113.74 105.611 110.776 105.611ZM11.2195 136.249C10.1587 136.249 9.31633 135.281 9.44113 134.221L11.9059 113.192L3.26368 115.532C1.73492 115.938 0.455752 114.284 1.23573 112.88L18.2705 83.3971C19.2065 81.7748 21.6712 82.4612 21.64 84.3331L21.172 102.335L29.0966 101.243C30.5942 101.056 31.655 102.647 30.9062 103.926L12.7794 135.344C12.4363 135.905 11.8435 136.249 11.2195 136.249ZM14.0274 108.981C15.0882 108.981 15.9306 109.916 15.8058 111.008L14.0274 125.984L25.9455 105.33L19.5809 106.204C18.4577 106.36 17.4905 105.486 17.5217 104.363L17.8649 91.3217L6.5396 110.915L14.0274 108.981ZM71.434 92.3201H57.1135C56.2088 92.3201 55.46 91.6649 55.3352 90.7602L53.744 78.3429C49.4697 76.9077 45.5074 74.6302 42.1379 71.635L30.563 76.4709C29.7206 76.8141 28.7534 76.4709 28.3167 75.6909L21.1408 63.3048C20.704 62.5249 20.8912 61.5265 21.6088 60.9649L31.5926 53.3835C30.6878 48.9532 30.6878 44.3669 31.5926 39.9678L21.6088 32.3552C20.8912 31.8248 20.704 30.8265 21.1408 30.0465L28.3167 17.6292C28.7534 16.8492 29.7206 16.5372 30.563 16.8804L42.1379 21.7163C45.5074 18.7212 49.4697 16.4124 53.744 15.0085L55.3352 2.59116C55.46 1.68638 56.2088 1 57.1135 1H71.434C72.3388 1 73.0875 1.68638 73.2123 2.59116L74.8035 15.0085C79.0778 16.4124 83.0401 18.7212 86.4096 21.7163L97.9845 16.8804C98.8269 16.5372 99.7941 16.8492 100.231 17.6292L107.407 30.0465C107.843 30.8265 107.656 31.8248 106.939 32.3552L96.9549 39.9678C97.8597 44.3669 97.8597 48.9532 96.9549 53.3835L106.939 60.9649C107.656 61.5265 107.843 62.5249 107.407 63.3048L100.231 75.6909C99.7941 76.4709 98.8269 76.8141 97.9845 76.4709L86.4096 71.635C83.0401 74.6302 79.0778 76.9077 74.8035 78.3429L73.2123 90.7602C73.0875 91.6649 72.3388 92.3201 71.434 92.3201ZM58.7047 88.7322H69.8428L71.4028 76.7517C71.4964 76.0341 71.9956 75.4413 72.682 75.2541C77.1746 73.9126 81.3865 71.479 84.8184 68.2343C85.3176 67.7351 86.0976 67.5791 86.7528 67.8599L97.9221 72.5398L103.476 62.8681L93.8662 55.5362C92.2751 54.3195 94.0534 52.2915 94.0534 46.6757C94.0534 41.0598 92.2751 39.0319 93.8662 37.8151L103.476 30.4521L97.9221 20.8115L86.7528 25.4602C86.0976 25.741 85.3176 25.6162 84.8184 25.117C81.3865 21.8411 77.1746 19.4387 72.682 18.0972C71.9956 17.91 71.4964 17.3172 71.4028 16.5996L69.8428 4.61911H58.7047L57.1447 16.5996C57.0511 17.3172 56.552 17.91 55.8656 18.0972C51.3729 19.4387 47.161 21.8411 43.7291 25.117C43.2299 25.6162 42.4811 25.741 41.7947 25.4602L30.6254 20.8115L25.0719 30.4521L34.6813 37.8151C36.2725 39.0319 34.4941 41.0598 34.4941 46.6757C34.4941 52.2915 36.2725 54.3195 34.6813 55.5362L25.0719 62.8681L30.6254 72.5398L41.7947 67.8599C42.4499 67.5791 43.2299 67.7351 43.7291 68.2343C47.161 71.479 51.3729 73.9126 55.8656 75.223C56.552 75.4413 57.0511 76.0341 57.1447 76.7205L58.7047 88.7322ZM64.2582 30.7329C55.4912 30.7329 48.3466 37.8775 48.3466 46.6757C48.3466 55.4426 55.4912 62.6185 64.2582 62.6185C73.0563 62.6185 80.201 55.4426 80.201 46.6757C80.201 37.8775 73.0563 30.7329 64.2582 30.7329Z" fill="#101D42"/>
<path fill-rule="evenodd" clip-rule="evenodd" d="M64.2582 66.2064C53.4944 66.2064 44.7274 57.4394 44.7274 46.6757C44.7274 35.9119 53.4944 27.1449 64.2582 27.1449C75.0531 27.1449 83.8201 35.9119 83.8201 46.6757C83.8201 57.4394 75.0531 66.2064 64.2582 66.2064ZM108.998 124.518C100.574 123.613 94.0222 116.5 94.0222 107.857V92.9129C94.0222 91.9145 94.8334 91.1034 95.8318 91.1034H102.29V81.4316C102.29 79.0605 105.909 79.0605 105.909 81.4316V91.1034H115.674V81.4316C115.674 79.0605 119.262 79.0605 119.262 81.4316V91.1034H125.752C126.75 91.1034 127.53 91.9145 127.53 92.9129V107.857C127.53 116.5 120.978 123.613 112.586 124.518V134.408C112.586 136.779 108.998 136.779 108.998 134.408V124.518ZM97.6101 94.6913V107.857C97.6101 115.127 103.538 121.023 110.776 121.023C118.046 121.023 123.942 115.127 123.942 107.857V94.6913H97.6101ZM110.776 113.723C107.563 113.723 104.942 111.102 104.942 107.857C104.942 104.644 107.563 102.023 110.776 102.023C114.021 102.023 116.642 104.644 116.642 107.857C116.642 111.102 114.021 113.723 110.776 113.723ZM110.776 105.611C107.812 105.611 107.812 110.104 110.776 110.104C113.74 110.104 113.74 105.611 110.776 105.611ZM11.2195 136.249C10.1587 136.249 9.31633 135.281 9.44113 134.221L11.9059 113.192L3.26368 115.532C1.73492 115.938 0.455752 114.284 1.23573 112.88L18.2705 83.3971C19.2065 81.7748 21.6712 82.4612 21.64 84.3331L21.172 102.335L29.0966 101.243C30.5942 101.056 31.655 102.647 30.9062 103.926L12.7794 135.344C12.4363 135.905 11.8435 136.249 11.2195 136.249ZM14.0274 108.981C15.0882 108.981 15.9306 109.916 15.8058 111.008L14.0274 125.984L25.9455 105.33L19.5809 106.204C18.4577 106.36 17.4905 105.486 17.5217 104.363L17.8649 91.3217L6.5396 110.915L14.0274 108.981ZM71.434 92.3201H57.1135C56.2088 92.3201 55.46 91.6649 55.3352 90.7602L53.744 78.3429C49.4697 76.9077 45.5074 74.6302 42.1379 71.635L30.563 76.4709C29.7206 76.8141 28.7534 76.4709 28.3167 75.6909L21.1408 63.3048C20.704 62.5249 20.8912 61.5265 21.6088 60.9649L31.5926 53.3835C30.6878 48.9532 30.6878 44.3669 31.5926 39.9678L21.6088 32.3552C20.8912 31.8248 20.704 30.8265 21.1408 30.0465L28.3167 17.6292C28.7534 16.8492 29.7206 16.5372 30.563 16.8804L42.1379 21.7163C45.5074 18.7212 49.4697 16.4124 53.744 15.0085L55.3352 2.59116C55.46 1.68638 56.2088 1 57.1135 1H71.434C72.3388 1 73.0875 1.68638 73.2123 2.59116L74.8035 15.0085C79.0778 16.4124 83.0401 18.7212 86.4096 21.7163L97.9845 16.8804C98.8269 16.5372 99.7941 16.8492 100.231 17.6292L107.407 30.0465C107.843 30.8265 107.656 31.8248 106.939 32.3552L96.9549 39.9678C97.8597 44.3669 97.8597 48.9532 96.9549 53.3835L106.939 60.9649C107.656 61.5265 107.843 62.5249 107.407 63.3048L100.231 75.6909C99.7941 76.4709 98.8269 76.8141 97.9845 76.4709L86.4096 71.635C83.0401 74.6302 79.0778 76.9077 74.8035 78.3429L73.2123 90.7602C73.0875 91.6649 72.3388 92.3201 71.434 92.3201ZM58.7047 88.7322H69.8428L71.4028 76.7517C71.4964 76.0341 71.9956 75.4413 72.682 75.2541C77.1746 73.9126 81.3865 71.479 84.8184 68.2343C85.3176 67.7351 86.0976 67.5791 86.7528 67.8599L97.9221 72.5398L103.476 62.8681L93.8662 55.5362C92.2751 54.3195 94.0534 52.2915 94.0534 46.6757C94.0534 41.0598 92.2751 39.0319 93.8662 37.8151L103.476 30.4521L97.9221 20.8115L86.7528 25.4602C86.0976 25.741 85.3176 25.6162 84.8184 25.117C81.3865 21.8411 77.1746 19.4387 72.682 18.0972C71.9956 17.91 71.4964 17.3172 71.4028 16.5996L69.8428 4.61911H58.7047L57.1447 16.5996C57.0511 17.3172 56.552 17.91 55.8656 18.0972C51.3729 19.4387 47.161 21.8411 43.7291 25.117C43.2299 25.6162 42.4811 25.741 41.7947 25.4602L30.6254 20.8115L25.0719 30.4521L34.6813 37.8151C36.2725 39.0319 34.4941 41.0598 34.4941 46.6757C34.4941 52.2915 36.2725 54.3195 34.6813 55.5362L25.0719 62.8681L30.6254 72.5398L41.7947 67.8599C42.4499 67.5791 43.2299 67.7351 43.7291 68.2343C47.161 71.479 51.3729 73.9126 55.8656 75.223C56.552 75.4413 57.0511 76.0341 57.1447 76.7205L58.7047 88.7322ZM64.2582 30.7329C55.4912 30.7329 48.3466 37.8775 48.3466 46.6757C48.3466 55.4426 55.4912 62.6185 64.2582 62.6185C73.0563 62.6185 80.201 55.4426 80.201 46.6757C80.201 37.8775 73.0563 30.7329 64.2582 30.7329Z" stroke="#00C1D9" stroke-width="0.2" mask="url(#path-1-outside-1_1041_532)"/>
</svg>
