<svg width="24" height="25" viewBox="0 0 24 25" fill="none" xmlns="http://www.w3.org/2000/svg">
<mask id="path-1-outside-1_1037_3" maskUnits="userSpaceOnUse" x="0" y="0" width="24" height="25" fill="black">
<rect fill="white" width="24" height="25"/>
<path fill-rule="evenodd" clip-rule="evenodd" d="M11.9988 12.3375C10.1273 12.3375 8.60296 10.8132 8.60296 8.9417C8.60296 7.07019 10.1273 5.54586 11.9988 5.54586C13.8757 5.54586 15.4001 7.07019 15.4001 8.9417C15.4001 10.8132 13.8757 12.3375 11.9988 12.3375ZM19.7778 22.4762C18.3131 22.3189 17.1739 21.0821 17.1739 19.5795V16.981C17.1739 16.8075 17.315 16.6664 17.4885 16.6664H18.6115V14.9848C18.6115 14.5725 19.2407 14.5725 19.2407 14.9848V16.6664H20.9386V14.9848C20.9386 14.5725 21.5625 14.5725 21.5625 14.9848V16.6664H22.6908C22.8644 16.6664 23 16.8075 23 16.981V19.5795C23 21.0821 21.8608 22.3189 20.4016 22.4762V24.1958C20.4016 24.6081 19.7778 24.6081 19.7778 24.1958V22.4762ZM17.7978 17.2902V19.5795C17.7978 20.8434 18.8284 21.8687 20.087 21.8687C21.3509 21.8687 22.3762 20.8434 22.3762 19.5795V17.2902H17.7978ZM20.087 20.5993C19.5282 20.5993 19.0725 20.1436 19.0725 19.5795C19.0725 19.0207 19.5282 18.565 20.087 18.565C20.6511 18.565 21.1068 19.0207 21.1068 19.5795C21.1068 20.1436 20.6511 20.5993 20.087 20.5993ZM20.087 19.1889C19.5716 19.1889 19.5716 19.97 20.087 19.97C20.6023 19.97 20.6023 19.1889 20.087 19.1889ZM2.77688 24.5159C2.59244 24.5159 2.44597 24.3477 2.46767 24.1633L2.89622 20.5071L1.39359 20.9139C1.12778 20.9844 0.905371 20.6969 1.04099 20.4528L4.00285 15.3265C4.16559 15.0444 4.59414 15.1638 4.58871 15.4893L4.50734 18.6193L5.88521 18.4294C6.14559 18.3969 6.33003 18.6735 6.19984 18.8959L3.04811 24.3586C2.98844 24.4562 2.88537 24.5159 2.77688 24.5159ZM3.2651 19.7747C3.44953 19.7747 3.596 19.9375 3.5743 20.1273L3.2651 22.7312L5.33732 19.1401L4.23069 19.2919C4.0354 19.3191 3.86723 19.1672 3.87266 18.9719L3.93233 16.7044L1.96318 20.1111L3.2651 19.7747ZM13.2465 16.878H10.7565C10.5992 16.878 10.469 16.7641 10.4473 16.6067L10.1707 14.4477C9.42751 14.1982 8.73858 13.8022 8.15271 13.2814L6.14017 14.1222C5.9937 14.1819 5.82554 14.1222 5.74959 13.9866L4.50192 11.833C4.42597 11.6974 4.45852 11.5238 4.58329 11.4262L6.31918 10.108C6.16186 9.3377 6.16186 8.54027 6.31918 7.7754L4.58329 6.45178C4.45852 6.35956 4.42597 6.18597 4.50192 6.05036L5.74959 3.89134C5.82554 3.75573 5.9937 3.70148 6.14017 3.76115L8.15271 4.60197C8.73858 4.08121 9.42751 3.67978 10.1707 3.43567L10.4473 1.27666C10.469 1.11934 10.5992 1 10.7565 1H13.2465C13.4038 1 13.534 1.11934 13.5557 1.27666L13.8323 3.43567C14.5755 3.67978 15.2644 4.08121 15.8503 4.60197L17.8628 3.76115C18.0093 3.70148 18.1775 3.75573 18.2534 3.89134L19.5011 6.05036C19.577 6.18597 19.5445 6.35956 19.4197 6.45178L17.6838 7.7754C17.8412 8.54027 17.8412 9.3377 17.6838 10.108L19.4197 11.4262C19.5445 11.5238 19.577 11.6974 19.5011 11.833L18.2534 13.9866C18.1775 14.1222 18.0093 14.1819 17.8628 14.1222L15.8503 13.2814C15.2644 13.8022 14.5755 14.1982 13.8323 14.4477L13.5557 16.6067C13.534 16.7641 13.4038 16.878 13.2465 16.878ZM11.0332 16.2541H12.9698L13.241 14.1711C13.2573 14.0463 13.3441 13.9432 13.4635 13.9107C14.2446 13.6774 14.9769 13.2543 15.5736 12.6901C15.6604 12.6033 15.7961 12.5762 15.91 12.625L17.852 13.4387L18.8176 11.7571L17.1468 10.4823C16.8701 10.2707 17.1793 9.91814 17.1793 8.9417C17.1793 7.96526 16.8701 7.61266 17.1468 7.4011L18.8176 6.12088L17.852 4.44466L15.91 5.25293C15.7961 5.30175 15.6604 5.28005 15.5736 5.19326C14.9769 4.62367 14.2446 4.20597 13.4635 3.97271C13.3441 3.94016 13.2573 3.8371 13.241 3.71233L12.9698 1.62926H11.0332L10.762 3.71233C10.7457 3.8371 10.6589 3.94016 10.5396 3.97271C9.75841 4.20597 9.02608 4.62367 8.42937 5.19326C8.34258 5.28005 8.21238 5.30175 8.09304 5.25293L6.15101 4.44466L5.18543 6.12088L6.85622 7.4011C7.13288 7.61266 6.82367 7.96526 6.82367 8.9417C6.82367 9.91814 7.13288 10.2707 6.85622 10.4823L5.18543 11.7571L6.15101 13.4387L8.09304 12.625C8.20696 12.5762 8.34258 12.6033 8.42937 12.6901C9.02608 13.2543 9.75841 13.6774 10.5396 13.9053C10.6589 13.9432 10.7457 14.0463 10.762 14.1656L11.0332 16.2541ZM11.9988 6.1697C10.4745 6.1697 9.23222 7.41195 9.23222 8.9417C9.23222 10.466 10.4745 11.7137 11.9988 11.7137C13.5285 11.7137 14.7708 10.466 14.7708 8.9417C14.7708 7.41195 13.5285 6.1697 11.9988 6.1697Z"/>
</mask>
<path fill-rule="evenodd" clip-rule="evenodd" d="M11.9988 12.3375C10.1273 12.3375 8.60296 10.8132 8.60296 8.9417C8.60296 7.07019 10.1273 5.54586 11.9988 5.54586C13.8757 5.54586 15.4001 7.07019 15.4001 8.9417C15.4001 10.8132 13.8757 12.3375 11.9988 12.3375ZM19.7778 22.4762C18.3131 22.3189 17.1739 21.0821 17.1739 19.5795V16.981C17.1739 16.8075 17.315 16.6664 17.4885 16.6664H18.6115V14.9848C18.6115 14.5725 19.2407 14.5725 19.2407 14.9848V16.6664H20.9386V14.9848C20.9386 14.5725 21.5625 14.5725 21.5625 14.9848V16.6664H22.6908C22.8644 16.6664 23 16.8075 23 16.981V19.5795C23 21.0821 21.8608 22.3189 20.4016 22.4762V24.1958C20.4016 24.6081 19.7778 24.6081 19.7778 24.1958V22.4762ZM17.7978 17.2902V19.5795C17.7978 20.8434 18.8284 21.8687 20.087 21.8687C21.3509 21.8687 22.3762 20.8434 22.3762 19.5795V17.2902H17.7978ZM20.087 20.5993C19.5282 20.5993 19.0725 20.1436 19.0725 19.5795C19.0725 19.0207 19.5282 18.565 20.087 18.565C20.6511 18.565 21.1068 19.0207 21.1068 19.5795C21.1068 20.1436 20.6511 20.5993 20.087 20.5993ZM20.087 19.1889C19.5716 19.1889 19.5716 19.97 20.087 19.97C20.6023 19.97 20.6023 19.1889 20.087 19.1889ZM2.77688 24.5159C2.59244 24.5159 2.44597 24.3477 2.46767 24.1633L2.89622 20.5071L1.39359 20.9139C1.12778 20.9844 0.905371 20.6969 1.04099 20.4528L4.00285 15.3265C4.16559 15.0444 4.59414 15.1638 4.58871 15.4893L4.50734 18.6193L5.88521 18.4294C6.14559 18.3969 6.33003 18.6735 6.19984 18.8959L3.04811 24.3586C2.98844 24.4562 2.88537 24.5159 2.77688 24.5159ZM3.2651 19.7747C3.44953 19.7747 3.596 19.9375 3.5743 20.1273L3.2651 22.7312L5.33732 19.1401L4.23069 19.2919C4.0354 19.3191 3.86723 19.1672 3.87266 18.9719L3.93233 16.7044L1.96318 20.1111L3.2651 19.7747ZM13.2465 16.878H10.7565C10.5992 16.878 10.469 16.7641 10.4473 16.6067L10.1707 14.4477C9.42751 14.1982 8.73858 13.8022 8.15271 13.2814L6.14017 14.1222C5.9937 14.1819 5.82554 14.1222 5.74959 13.9866L4.50192 11.833C4.42597 11.6974 4.45852 11.5238 4.58329 11.4262L6.31918 10.108C6.16186 9.3377 6.16186 8.54027 6.31918 7.7754L4.58329 6.45178C4.45852 6.35956 4.42597 6.18597 4.50192 6.05036L5.74959 3.89134C5.82554 3.75573 5.9937 3.70148 6.14017 3.76115L8.15271 4.60197C8.73858 4.08121 9.42751 3.67978 10.1707 3.43567L10.4473 1.27666C10.469 1.11934 10.5992 1 10.7565 1H13.2465C13.4038 1 13.534 1.11934 13.5557 1.27666L13.8323 3.43567C14.5755 3.67978 15.2644 4.08121 15.8503 4.60197L17.8628 3.76115C18.0093 3.70148 18.1775 3.75573 18.2534 3.89134L19.5011 6.05036C19.577 6.18597 19.5445 6.35956 19.4197 6.45178L17.6838 7.7754C17.8412 8.54027 17.8412 9.3377 17.6838 10.108L19.4197 11.4262C19.5445 11.5238 19.577 11.6974 19.5011 11.833L18.2534 13.9866C18.1775 14.1222 18.0093 14.1819 17.8628 14.1222L15.8503 13.2814C15.2644 13.8022 14.5755 14.1982 13.8323 14.4477L13.5557 16.6067C13.534 16.7641 13.4038 16.878 13.2465 16.878ZM11.0332 16.2541H12.9698L13.241 14.1711C13.2573 14.0463 13.3441 13.9432 13.4635 13.9107C14.2446 13.6774 14.9769 13.2543 15.5736 12.6901C15.6604 12.6033 15.7961 12.5762 15.91 12.625L17.852 13.4387L18.8176 11.7571L17.1468 10.4823C16.8701 10.2707 17.1793 9.91814 17.1793 8.9417C17.1793 7.96526 16.8701 7.61266 17.1468 7.4011L18.8176 6.12088L17.852 4.44466L15.91 5.25293C15.7961 5.30175 15.6604 5.28005 15.5736 5.19326C14.9769 4.62367 14.2446 4.20597 13.4635 3.97271C13.3441 3.94016 13.2573 3.8371 13.241 3.71233L12.9698 1.62926H11.0332L10.762 3.71233C10.7457 3.8371 10.6589 3.94016 10.5396 3.97271C9.75841 4.20597 9.02608 4.62367 8.42937 5.19326C8.34258 5.28005 8.21238 5.30175 8.09304 5.25293L6.15101 4.44466L5.18543 6.12088L6.85622 7.4011C7.13288 7.61266 6.82367 7.96526 6.82367 8.9417C6.82367 9.91814 7.13288 10.2707 6.85622 10.4823L5.18543 11.7571L6.15101 13.4387L8.09304 12.625C8.20696 12.5762 8.34258 12.6033 8.42937 12.6901C9.02608 13.2543 9.75841 13.6774 10.5396 13.9053C10.6589 13.9432 10.7457 14.0463 10.762 14.1656L11.0332 16.2541ZM11.9988 6.1697C10.4745 6.1697 9.23222 7.41195 9.23222 8.9417C9.23222 10.466 10.4745 11.7137 11.9988 11.7137C13.5285 11.7137 14.7708 10.466 14.7708 8.9417C14.7708 7.41195 13.5285 6.1697 11.9988 6.1697Z" fill="#00C1D9"/>
<path fill-rule="evenodd" clip-rule="evenodd" d="M11.9988 12.3375C10.1273 12.3375 8.60296 10.8132 8.60296 8.9417C8.60296 7.07019 10.1273 5.54586 11.9988 5.54586C13.8757 5.54586 15.4001 7.07019 15.4001 8.9417C15.4001 10.8132 13.8757 12.3375 11.9988 12.3375ZM19.7778 22.4762C18.3131 22.3189 17.1739 21.0821 17.1739 19.5795V16.981C17.1739 16.8075 17.315 16.6664 17.4885 16.6664H18.6115V14.9848C18.6115 14.5725 19.2407 14.5725 19.2407 14.9848V16.6664H20.9386V14.9848C20.9386 14.5725 21.5625 14.5725 21.5625 14.9848V16.6664H22.6908C22.8644 16.6664 23 16.8075 23 16.981V19.5795C23 21.0821 21.8608 22.3189 20.4016 22.4762V24.1958C20.4016 24.6081 19.7778 24.6081 19.7778 24.1958V22.4762ZM17.7978 17.2902V19.5795C17.7978 20.8434 18.8284 21.8687 20.087 21.8687C21.3509 21.8687 22.3762 20.8434 22.3762 19.5795V17.2902H17.7978ZM20.087 20.5993C19.5282 20.5993 19.0725 20.1436 19.0725 19.5795C19.0725 19.0207 19.5282 18.565 20.087 18.565C20.6511 18.565 21.1068 19.0207 21.1068 19.5795C21.1068 20.1436 20.6511 20.5993 20.087 20.5993ZM20.087 19.1889C19.5716 19.1889 19.5716 19.97 20.087 19.97C20.6023 19.97 20.6023 19.1889 20.087 19.1889ZM2.77688 24.5159C2.59244 24.5159 2.44597 24.3477 2.46767 24.1633L2.89622 20.5071L1.39359 20.9139C1.12778 20.9844 0.905371 20.6969 1.04099 20.4528L4.00285 15.3265C4.16559 15.0444 4.59414 15.1638 4.58871 15.4893L4.50734 18.6193L5.88521 18.4294C6.14559 18.3969 6.33003 18.6735 6.19984 18.8959L3.04811 24.3586C2.98844 24.4562 2.88537 24.5159 2.77688 24.5159ZM3.2651 19.7747C3.44953 19.7747 3.596 19.9375 3.5743 20.1273L3.2651 22.7312L5.33732 19.1401L4.23069 19.2919C4.0354 19.3191 3.86723 19.1672 3.87266 18.9719L3.93233 16.7044L1.96318 20.1111L3.2651 19.7747ZM13.2465 16.878H10.7565C10.5992 16.878 10.469 16.7641 10.4473 16.6067L10.1707 14.4477C9.42751 14.1982 8.73858 13.8022 8.15271 13.2814L6.14017 14.1222C5.9937 14.1819 5.82554 14.1222 5.74959 13.9866L4.50192 11.833C4.42597 11.6974 4.45852 11.5238 4.58329 11.4262L6.31918 10.108C6.16186 9.3377 6.16186 8.54027 6.31918 7.7754L4.58329 6.45178C4.45852 6.35956 4.42597 6.18597 4.50192 6.05036L5.74959 3.89134C5.82554 3.75573 5.9937 3.70148 6.14017 3.76115L8.15271 4.60197C8.73858 4.08121 9.42751 3.67978 10.1707 3.43567L10.4473 1.27666C10.469 1.11934 10.5992 1 10.7565 1H13.2465C13.4038 1 13.534 1.11934 13.5557 1.27666L13.8323 3.43567C14.5755 3.67978 15.2644 4.08121 15.8503 4.60197L17.8628 3.76115C18.0093 3.70148 18.1775 3.75573 18.2534 3.89134L19.5011 6.05036C19.577 6.18597 19.5445 6.35956 19.4197 6.45178L17.6838 7.7754C17.8412 8.54027 17.8412 9.3377 17.6838 10.108L19.4197 11.4262C19.5445 11.5238 19.577 11.6974 19.5011 11.833L18.2534 13.9866C18.1775 14.1222 18.0093 14.1819 17.8628 14.1222L15.8503 13.2814C15.2644 13.8022 14.5755 14.1982 13.8323 14.4477L13.5557 16.6067C13.534 16.7641 13.4038 16.878 13.2465 16.878ZM11.0332 16.2541H12.9698L13.241 14.1711C13.2573 14.0463 13.3441 13.9432 13.4635 13.9107C14.2446 13.6774 14.9769 13.2543 15.5736 12.6901C15.6604 12.6033 15.7961 12.5762 15.91 12.625L17.852 13.4387L18.8176 11.7571L17.1468 10.4823C16.8701 10.2707 17.1793 9.91814 17.1793 8.9417C17.1793 7.96526 16.8701 7.61266 17.1468 7.4011L18.8176 6.12088L17.852 4.44466L15.91 5.25293C15.7961 5.30175 15.6604 5.28005 15.5736 5.19326C14.9769 4.62367 14.2446 4.20597 13.4635 3.97271C13.3441 3.94016 13.2573 3.8371 13.241 3.71233L12.9698 1.62926H11.0332L10.762 3.71233C10.7457 3.8371 10.6589 3.94016 10.5396 3.97271C9.75841 4.20597 9.02608 4.62367 8.42937 5.19326C8.34258 5.28005 8.21238 5.30175 8.09304 5.25293L6.15101 4.44466L5.18543 6.12088L6.85622 7.4011C7.13288 7.61266 6.82367 7.96526 6.82367 8.9417C6.82367 9.91814 7.13288 10.2707 6.85622 10.4823L5.18543 11.7571L6.15101 13.4387L8.09304 12.625C8.20696 12.5762 8.34258 12.6033 8.42937 12.6901C9.02608 13.2543 9.75841 13.6774 10.5396 13.9053C10.6589 13.9432 10.7457 14.0463 10.762 14.1656L11.0332 16.2541ZM11.9988 6.1697C10.4745 6.1697 9.23222 7.41195 9.23222 8.9417C9.23222 10.466 10.4745 11.7137 11.9988 11.7137C13.5285 11.7137 14.7708 10.466 14.7708 8.9417C14.7708 7.41195 13.5285 6.1697 11.9988 6.1697Z" stroke="#00C1D9" stroke-width="0.2" mask="url(#path-1-outside-1_1037_3)"/>
</svg>
