<svg width="41" height="41" viewBox="0 0 41 41" fill="none" xmlns="http://www.w3.org/2000/svg">
<path d="M34.639 -0.00012207H5.58693C2.50266 0.00368485 0.00381923 2.49447 0 5.5688V34.5272C0.00381923 37.6016 2.50266 40.0923 5.58693 40.0961H34.639C37.7233 40.0923 40.2221 37.6016 40.2259 34.5272V5.5688C40.2221 2.49447 37.7233 0.00368485 34.639 -0.00012207ZM37.9911 34.5272C37.9911 36.3725 36.4902 37.8686 34.639 37.8686H5.58693C3.73572 37.8686 2.23477 36.3725 2.23477 34.5272V5.5688C2.23477 3.72355 3.73572 2.22745 5.58693 2.22745H34.639C36.4902 2.22745 37.9911 3.72355 37.9911 5.5688V34.5272Z" fill="#51D6E6"/>
<path d="M20.1129 8.77087C13.8644 8.77087 8.79932 13.8197 8.79932 20.0479C8.79932 26.2762 13.8644 31.325 20.1129 31.325C26.3613 31.325 31.4264 26.2762 31.4264 20.0479C31.4198 13.8224 26.3585 8.77748 20.1129 8.77087ZM20.1129 29.0696C15.114 29.0696 11.062 25.0307 11.062 20.0479C11.062 15.0652 15.114 11.0263 20.1129 11.0263C25.1117 11.0263 29.1637 15.0652 29.1637 20.0479C29.1582 25.0279 25.1089 29.0641 20.1129 29.0696Z" fill="#51D6E6"/>
<path d="M32.0549 5.01184C30.3194 5.01184 28.9122 6.41444 28.9122 8.14436C28.9122 9.87428 30.3194 11.2769 32.0549 11.2769C33.7904 11.2769 35.1975 9.87428 35.1975 8.14436C35.1975 6.41444 33.7904 5.01184 32.0549 5.01184ZM32.0549 9.18854C31.4764 9.18854 31.0073 8.721 31.0073 8.14436C31.0073 7.56772 31.4764 7.10019 32.0549 7.10019C32.6334 7.10019 33.1024 7.56772 33.1024 8.14436C33.1024 8.721 32.6334 9.18854 32.0549 9.18854Z" fill="#51D6E6"/>
</svg>
