<svg width="248" height="248" viewBox="0 0 248 248" fill="none" xmlns="http://www.w3.org/2000/svg">
<path d="M247.482 123.646C247.482 150.196 247.512 176.746 247.482 203.306C247.452 229.166 229.282 247.276 203.352 247.296C150.202 247.326 97.0625 247.326 43.9125 247.296C18.3125 247.276 0.0325 229.076 0.0225 203.566C-0.0075 150.296 -0.0075 97.0364 0.0225 43.7664C0.0225 18.2364 18.2925 0.0363826 43.8925 0.0263826C97.2025 -0.00361741 150.513 -0.0136174 203.813 0.0263826C229.113 0.0463826 247.412 18.2964 247.462 43.5064C247.512 70.2164 247.472 96.9364 247.472 123.646H247.482ZM123.743 239.926C150.153 239.926 176.572 239.976 202.982 239.916C225.552 239.866 240.063 225.326 240.083 202.706C240.123 150.076 240.123 97.4564 240.083 44.8264C240.063 21.8864 225.623 7.40638 202.723 7.39638C150.053 7.35638 97.3825 7.35638 44.7125 7.39638C21.8125 7.41638 7.3825 21.8864 7.3625 44.8464C7.3325 97.3164 7.3325 149.776 7.3625 202.246C7.3725 225.516 21.7425 239.896 44.9625 239.926C71.2125 239.966 97.4725 239.926 123.723 239.926H123.743Z" fill="black"/>
<path d="M123.802 193.146C85.5725 193.166 54.2525 161.986 54.1925 123.826C54.1325 85.3864 85.4524 54.1064 123.922 54.1564C162.112 54.2164 193.312 85.4964 193.282 123.706C193.262 161.886 162.002 193.116 123.792 193.136L123.802 193.146ZM124.162 61.6364C89.6924 61.4664 61.9125 88.7964 61.6825 123.116C61.4525 157.556 88.7824 185.386 123.102 185.666C157.782 185.946 185.692 158.476 185.822 123.936C185.952 89.5164 158.532 61.8064 124.172 61.6264L124.162 61.6364Z" fill="black"/>
<path d="M197.372 30.9664C208.012 30.9764 216.622 39.7064 216.492 50.3564C216.372 60.7164 207.672 69.3164 197.332 69.3064C187.042 69.3064 178.282 60.6364 178.122 50.3164C177.962 39.8264 186.792 30.9564 197.372 30.9664ZM197.462 38.4264C190.732 38.3664 185.512 43.5364 185.572 50.2164C185.632 56.5964 190.822 61.7964 197.202 61.8664C203.692 61.9364 208.862 56.9564 209.022 50.4864C209.192 43.6664 204.222 38.4864 197.462 38.4264Z" fill="black"/>
<path d="M166.653 123.556C166.593 115.076 164.113 107.366 159.553 100.316C158.033 97.9663 156.733 95.2563 159.973 93.9063C161.323 93.3463 164.543 94.8863 165.593 96.3963C178.753 115.276 175.993 142.166 159.423 158.886C142.673 175.796 115.783 178.676 96.4627 165.656C94.1927 164.126 91.9427 162.426 93.9927 159.476C96.0527 156.516 98.4327 158.246 100.703 159.616C127.133 175.616 159.523 161.716 165.753 131.686C166.303 129.026 166.363 126.266 166.643 123.556H166.653Z" fill="black"/>
<path d="M123.452 80.9663C90.6725 81.1163 70.3025 116.546 86.6725 144.956C86.9125 145.376 87.1525 145.796 87.4025 146.206C88.9525 148.656 91.2825 151.436 87.5325 153.556C83.8725 155.626 82.4725 152.126 81.0025 149.746C64.1825 122.436 77.1025 86.6063 107.552 76.2863C122.672 71.1663 137.052 73.1663 150.612 81.4263C153.012 82.8863 155.692 84.5963 153.462 87.8563C151.432 90.8163 148.992 89.1063 146.752 87.6763C139.642 83.1663 131.912 80.7863 123.452 80.9763V80.9663Z" fill="black"/>
</svg>
