<svg width="200" height="200" viewBox="0 0 200 200" fill="none" xmlns="http://www.w3.org/2000/svg">
<path d="M152.781 73.7969C152.492 67.4766 151.437 64.043 150.551 61.7578C149.375 58.7305 147.969 56.5703 145.699 54.3008C143.43 52.0312 141.27 50.625 138.242 49.4492C135.957 48.5625 132.523 47.5078 126.203 47.2187C119.363 46.9062 117.312 46.8398 100 46.8398C82.6875 46.8398 80.6367 46.9062 73.7969 47.2187C67.4766 47.5078 64.043 48.5625 61.7578 49.4492C58.7305 50.625 56.5703 52.0312 54.3008 54.3008C52.0312 56.5703 50.625 58.7305 49.4492 61.7578C48.5625 64.043 47.5078 67.4766 47.2187 73.7969C46.9062 80.6367 46.8398 82.6875 46.8398 100C46.8398 117.312 46.9062 119.363 47.2187 126.203C47.5078 132.523 48.5625 135.957 49.4492 138.242C50.625 141.27 52.0312 143.43 54.3008 145.699C56.5703 147.969 58.7305 149.375 61.7578 150.551C64.043 151.437 67.4766 152.492 73.7969 152.781C80.6328 153.094 82.6836 153.16 100 153.16C117.316 153.16 119.367 153.094 126.203 152.781C132.523 152.492 135.957 151.437 138.242 150.551C141.27 149.375 143.43 147.969 145.699 145.699C147.969 143.43 149.375 141.27 150.551 138.242C151.437 135.957 152.492 132.523 152.781 126.203C153.094 119.363 153.16 117.312 153.16 100C153.16 82.6875 153.094 80.6367 152.781 73.7969ZM100 133.297C81.6094 133.297 66.7031 118.391 66.7031 100C66.7031 81.6094 81.6094 66.7031 100 66.7031C118.391 66.7031 133.297 81.6094 133.297 100C133.297 118.391 118.391 133.297 100 133.297ZM134.613 73.168C130.316 73.168 126.832 69.6836 126.832 65.3867C126.832 61.0898 130.316 57.6055 134.613 57.6055C138.91 57.6055 142.395 61.0898 142.395 65.3867C142.395 69.6836 138.91 73.168 134.613 73.168ZM100 78.3867C88.0625 78.3867 78.3867 88.0625 78.3867 100C78.3867 111.937 88.0625 121.613 100 121.613C111.937 121.613 121.613 111.937 121.613 100C121.613 88.0625 111.937 78.3867 100 78.3867Z" fill="#00C1D9"/>
<path d="M100 0C44.7734 0 0 44.7734 0 100C0 155.227 44.7734 200 100 200C155.227 200 200 155.227 200 100C200 44.7734 155.227 0 100 0ZM164.453 126.734C164.141 133.637 163.043 138.352 161.441 142.477C159.781 146.738 157.566 150.355 153.961 153.961C150.355 157.566 146.738 159.781 142.477 161.441C138.352 163.043 133.637 164.141 126.734 164.453C119.82 164.77 117.609 164.844 100 164.844C82.3906 164.844 80.1797 164.77 73.2656 164.453C66.3633 164.141 61.6484 163.043 57.5234 161.441C53.2617 159.781 49.6445 157.566 46.0391 153.961C42.4336 150.355 40.2187 146.738 38.5586 142.477C36.957 138.352 35.8594 133.637 35.5469 126.734C35.2305 119.82 35.1562 117.609 35.1562 100C35.1562 82.3906 35.2305 80.1797 35.5469 73.2656C35.8594 66.3633 36.957 61.6484 38.5586 57.5234C40.2187 53.2617 42.4336 49.6445 46.0391 46.0391C49.6445 42.4336 53.2617 40.2187 57.5234 38.5586C61.6484 36.957 66.3633 35.8594 73.2656 35.5469C80.1797 35.2305 82.3906 35.1562 100 35.1562C117.609 35.1562 119.82 35.2305 126.734 35.5469C133.637 35.8594 138.352 36.957 142.477 38.5586C146.738 40.2187 150.355 42.4336 153.961 46.0391C157.566 49.6445 159.781 53.2617 161.441 57.5234C163.043 61.6484 164.141 66.3633 164.453 73.2656C164.77 80.1797 164.844 82.3906 164.844 100C164.844 117.609 164.77 119.82 164.453 126.734Z" fill="#00C1D9"/>
</svg>
