<svg width="121" height="111" viewBox="0 0 121 111" fill="none" xmlns="http://www.w3.org/2000/svg">
<path d="M40.8563 52.3077L42.7097 55.4157C41.9779 56.735 41.3984 58.1332 40.9825 59.5835L37.4794 60.4662C37.1603 60.5463 36.8725 60.72 36.6527 60.9649C36.433 61.2097 36.2914 61.5147 36.2462 61.8405C35.9376 64.0566 35.9376 66.3048 36.2462 68.5209C36.2915 68.8467 36.4331 69.1516 36.6528 69.3964C36.8725 69.6412 37.1604 69.8148 37.4794 69.895L40.9825 70.7779C41.3993 72.229 41.9786 73.6283 42.7095 74.9493L40.8563 78.0537C40.6881 78.3359 40.608 78.6619 40.6261 78.9899C40.6442 79.3179 40.7597 79.6331 40.9579 79.8951C41.633 80.7847 42.3665 81.6284 43.1537 82.4206C43.944 83.2116 44.7878 83.9474 45.6789 84.6229C45.9414 84.8215 46.2573 84.9371 46.586 84.9549C46.9147 84.9727 47.2412 84.8918 47.5236 84.7227L50.6228 82.8659C51.9438 83.5977 53.3437 84.1767 54.7956 84.5918L55.6793 88.096C55.7597 88.4148 55.9333 88.7023 56.1781 88.9217C56.4228 89.1412 56.7275 89.2826 57.0531 89.3278C59.2694 89.6364 61.5177 89.6364 63.7339 89.3278C64.0596 89.2826 64.3643 89.1411 64.6091 88.9216C64.8538 88.7021 65.0275 88.4146 65.1078 88.0958L65.9912 84.5918C67.4433 84.1768 68.8433 83.5978 70.1642 82.8659L73.263 84.7227C73.5454 84.8919 73.8719 84.9728 74.2005 84.955C74.5292 84.9373 74.8451 84.8217 75.1077 84.6231C76.8939 83.2702 78.4846 81.6768 79.8343 79.8882C80.0303 79.6264 80.1441 79.3122 80.1612 78.9856C80.1784 78.659 80.0982 78.3346 79.9308 78.0537L78.0774 74.9493C78.8085 73.6284 79.3879 72.229 79.8046 70.7779L83.3074 69.895C83.6265 69.8148 83.9143 69.6413 84.134 69.3965C84.3537 69.1517 84.4953 68.8469 84.5407 68.5211C84.8495 66.3049 84.8495 64.0565 84.5407 61.8403C84.4954 61.5145 84.3538 61.2096 84.1341 60.9648C83.9143 60.7199 83.6265 60.5463 83.3074 60.4662L79.8041 59.5835C79.3874 58.1323 78.808 56.7329 78.0769 55.4119L79.9303 52.3077C80.0986 52.0252 80.1787 51.6988 80.1604 51.3705C80.142 51.0421 80.026 50.7267 79.8273 50.4647C78.4774 48.684 76.89 47.0966 75.1093 45.7468C74.8468 45.5477 74.5307 45.4317 74.2017 45.4138C73.8727 45.3958 73.5459 45.4767 73.2632 45.646L70.1647 47.499C68.8424 46.7695 67.4425 46.1906 65.9912 45.7729L65.1078 42.2668C65.0277 41.9477 64.8541 41.6598 64.6093 41.44C64.3645 41.2203 64.0596 41.0786 63.7337 41.0333C61.5188 40.7289 59.2727 40.7289 57.0579 41.0333C56.731 41.0777 56.425 41.2189 56.1792 41.4388C55.9333 41.6587 55.759 41.9472 55.6786 42.267L54.7958 45.7703C53.3434 46.1873 51.9427 46.7671 50.6205 47.4988L47.5222 45.646C47.2399 45.4769 46.9134 45.396 46.5848 45.4138C46.2561 45.4315 45.9403 45.547 45.6778 45.7456C44.7862 46.4222 43.9407 47.1575 43.1471 47.9467C42.3647 48.7371 41.6344 49.5772 40.9605 50.4618C40.761 50.724 40.6444 51.0399 40.6259 51.3688C40.6073 51.6978 40.6875 52.0248 40.8563 52.3077ZM43.9444 61.3175C44.3586 59.535 45.0639 57.8329 46.0318 56.2798C46.192 56.0222 46.2781 55.7255 46.2808 55.4223C46.2834 55.119 46.2025 54.8209 46.0469 54.5605L44.2803 51.601C44.6684 51.1403 45.0717 50.6982 45.4834 50.2819C45.9139 49.8554 46.3562 49.4496 46.8093 49.0684L49.7672 50.835C50.0271 50.99 50.3245 51.0706 50.627 51.0681C50.9295 51.0655 51.2255 50.98 51.4827 50.8206C53.0399 49.8531 54.7453 49.1474 56.5309 48.7318C56.826 48.6631 57.0966 48.5146 57.313 48.3024C57.5294 48.0901 57.6831 47.8225 57.7575 47.5287L58.6023 44.1849C59.7936 44.0832 60.9915 44.0825 62.1829 44.1828L63.0279 47.5287C63.102 47.822 63.2552 48.0893 63.4708 48.3015C63.6864 48.5136 63.9561 48.6625 64.2506 48.7318C66.0366 49.1504 67.7427 49.8561 69.3025 50.8216C69.5597 50.9809 69.8557 51.0666 70.1582 51.0691C70.4607 51.0717 70.7581 50.9911 71.0179 50.8362L73.9756 49.0698C74.8892 49.8407 75.7358 50.6875 76.5065 51.6012L74.7406 54.5525C74.5845 54.8126 74.5031 55.1107 74.5053 55.414C74.5075 55.7173 74.5931 56.0141 74.7529 56.272C75.7205 57.8287 76.4262 59.5336 76.842 61.3187C76.9104 61.6142 77.0589 61.885 77.2711 62.1017C77.4833 62.3183 77.7511 62.4723 78.0451 62.5468L81.3915 63.392C81.4939 64.5831 81.4939 65.7807 81.3915 66.9717L78.0451 67.817C77.7511 67.8914 77.4833 68.0454 77.2711 68.2621C77.0589 68.4787 76.9104 68.7496 76.842 69.045C76.4262 70.8302 75.7204 72.535 74.7529 74.0918C74.5931 74.3496 74.5075 74.6465 74.5053 74.9498C74.5031 75.2531 74.5845 75.5511 74.7406 75.8112L76.5082 78.7651C76.1355 79.2067 75.7297 79.6488 75.2969 80.0861C74.8723 80.5108 74.4297 80.9179 73.9758 81.3012L71.022 79.5304C70.7613 79.3739 70.4624 79.2924 70.1583 79.295C69.8543 79.2975 69.5568 79.3839 69.2987 79.5448C67.7445 80.5138 66.0405 81.2187 64.256 81.631C63.9603 81.6996 63.6892 81.8483 63.4725 82.0609C63.2558 82.2735 63.1019 82.5416 63.0277 82.836L62.1834 86.181C60.9918 86.2831 59.7936 86.2831 58.602 86.181L57.7578 82.836C57.6835 82.5417 57.5296 82.2735 57.3129 82.061C57.0962 81.8485 56.8251 81.6998 56.5294 81.6313C54.7449 81.2186 53.0409 80.5136 51.4865 79.5448C51.2285 79.3842 50.9313 79.2978 50.6275 79.2953C50.3236 79.2928 50.025 79.3741 49.7644 79.5304L46.8108 81.3012C46.3571 80.9184 45.9167 80.5133 45.4947 80.0916C45.0677 79.6606 44.6613 79.2164 44.2796 78.7637L46.0458 75.8117C46.2018 75.5517 46.2833 75.2537 46.2811 74.9504C46.279 74.6471 46.1934 74.3503 46.0337 74.0925C45.0661 72.5357 44.3604 70.8307 43.9446 69.0455C43.8762 68.7501 43.7277 68.4792 43.5155 68.2626C43.3033 68.0459 43.0355 67.8919 42.7416 67.8174L39.3951 66.9706C39.2928 65.7795 39.2928 64.5819 39.3951 63.3908L42.7416 62.5456C43.0355 62.4711 43.3032 62.3171 43.5154 62.1004C43.7276 61.8838 43.876 61.6129 43.9444 61.3175ZM94.9652 93.7134C95.1221 93.8632 95.248 94.0424 95.3357 94.2408C95.4234 94.4392 95.4711 94.653 95.4761 94.8699C95.4811 95.0868 95.4433 95.3025 95.3649 95.5048C95.2865 95.7071 95.1691 95.8919 95.0192 96.0488C90.4436 100.846 84.9228 104.642 78.8058 107.198C72.6887 109.753 66.1081 111.012 59.4797 110.896C52.8513 110.779 46.3191 109.289 40.2957 106.521C34.2722 103.752 28.8883 99.7637 24.4841 94.8087C24.34 94.6466 24.2292 94.4577 24.1581 94.2528C24.087 94.0479 24.0569 93.8309 24.0696 93.6144C24.0823 93.3979 24.1375 93.186 24.2321 92.9908C24.3267 92.7956 24.4589 92.621 24.621 92.4768C24.7831 92.3327 24.9719 92.2219 25.1769 92.1508C25.3818 92.0797 25.5987 92.0496 25.8152 92.0623C26.0317 92.075 26.2436 92.1302 26.4388 92.2248C26.634 92.3194 26.8087 92.4515 26.9528 92.6136C31.0536 97.2275 36.0667 100.941 41.6753 103.519C47.284 106.097 53.3663 107.484 59.5382 107.593C65.7101 107.701 71.8375 106.529 77.5332 104.149C83.229 101.769 88.3694 98.2346 92.6298 93.7677C92.7796 93.6107 92.9588 93.4847 93.1572 93.3971C93.3556 93.3094 93.5694 93.2617 93.7863 93.2566C94.0031 93.2516 94.2189 93.2893 94.4212 93.3677C94.6235 93.4461 94.8083 93.5636 94.9652 93.7134ZM60.3937 79.8427C63.7857 79.8404 67.072 78.662 69.6926 76.5084C72.3133 74.3548 74.1062 71.3592 74.7658 68.0319C75.4255 64.7047 74.9111 61.2516 73.3103 58.2611C71.7095 55.2706 69.1213 52.9276 65.9867 51.6313C62.8522 50.335 59.3651 50.1657 56.1197 51.1522C52.8743 52.1386 50.0713 54.2198 48.1882 57.0412C46.3052 59.8625 45.4587 63.2495 45.7928 66.625C46.127 70.0005 47.6212 73.1558 50.0208 75.5532C51.3821 76.9161 52.9992 77.9966 54.7793 78.7328C56.5594 79.4689 58.4674 79.8461 60.3937 79.8427ZM52.3569 57.1441C53.9464 55.5546 55.9715 54.4721 58.1762 54.0336C60.3809 53.5951 62.6661 53.8201 64.7429 54.6804C66.8197 55.5406 68.5947 56.9973 69.8435 58.8664C71.0924 60.7354 71.759 62.9328 71.759 65.1807C71.759 67.4286 71.0924 69.626 69.8435 71.495C68.5947 73.364 66.8197 74.8208 64.7429 75.681C62.6661 76.5412 60.3809 76.7663 58.1762 76.3278C55.9715 75.8893 53.9464 74.8068 52.3569 73.2173C51.2972 72.1644 50.4561 70.9123 49.8822 69.533C49.3083 68.1537 49.0128 66.6746 49.0128 65.1807C49.0128 63.6868 49.3083 62.2076 49.8822 60.8284C50.4561 59.4491 51.2972 58.197 52.3569 57.1441ZM81.1634 21.5785C81.2679 21.3884 81.4088 21.2207 81.5781 21.0851C81.7474 20.9495 81.9418 20.8486 82.1502 20.7881C82.3585 20.7277 82.5767 20.7089 82.7923 20.7328C83.0079 20.7566 83.2167 20.8228 83.4067 20.9274C96.4112 28.0821 104.335 39.1858 106.959 53.9293C106.997 54.1428 106.992 54.3618 106.946 54.5736C106.899 54.7854 106.811 54.986 106.687 55.1638C106.563 55.3417 106.405 55.4933 106.222 55.6101C106.039 55.7269 105.835 55.8066 105.622 55.8445C105.408 55.8825 105.189 55.878 104.977 55.8314C104.766 55.7847 104.565 55.6968 104.387 55.5726C104.209 55.4485 104.058 55.2905 103.941 55.1078C103.824 54.925 103.745 54.721 103.707 54.5075C101.266 40.796 93.9008 30.472 81.8154 23.8226C81.6251 23.7181 81.4573 23.5772 81.3215 23.4079C81.1858 23.2386 81.0847 23.0441 81.0242 22.8357C80.9636 22.6273 80.9447 22.409 80.9686 22.1932C80.9925 21.9775 81.0587 21.7686 81.1634 21.5785ZM13.8535 51.0818C15.6033 44.2577 18.8323 37.902 23.3118 32.4647C27.7913 27.0275 33.4116 22.6418 39.7747 19.6184C40.1704 19.4305 40.6245 19.4074 41.0372 19.5543C41.4499 19.7012 41.7873 20.006 41.9752 20.4017C42.1632 20.7974 42.1862 21.2515 42.0394 21.6642C41.8925 22.0769 41.5876 22.4143 41.192 22.6023C35.2585 25.4046 30.018 29.4839 25.8454 34.5483C21.6727 39.6127 18.6713 45.5369 17.0558 51.8968C16.9477 52.3213 16.6754 52.6855 16.2988 52.9093C15.9222 53.1331 15.4721 53.198 15.0476 53.09C14.6231 52.9819 14.2589 52.7096 14.0351 52.333C13.8113 51.9564 13.7454 51.5063 13.8535 51.0818ZM20.088 79.4707L23.7691 81.5961L24.7585 86.2315C24.85 86.66 25.1079 87.0347 25.4756 87.2731C25.8434 87.5114 26.2907 87.594 26.7193 87.5025C27.1478 87.411 27.5225 87.153 27.7608 86.7853C27.9992 86.4176 28.0817 85.9703 27.9903 85.5417L27.6225 83.8197L30.3903 85.4176C30.7696 85.6366 31.2204 85.6959 31.6435 85.5825C32.0666 85.4691 32.4273 85.1923 32.6463 84.8129C32.8652 84.4336 32.9245 83.9828 32.8111 83.5597C32.6977 83.1366 32.4209 82.7759 32.0415 82.5569L29.2745 80.9594L30.9543 80.4169C31.3711 80.2824 31.7174 79.9878 31.9171 79.5979C32.1167 79.2081 32.1533 78.7549 32.0188 78.338C31.8843 77.9212 31.5897 77.5749 31.1998 77.3753C30.81 77.1756 30.3568 77.139 29.9399 77.2736L25.4199 78.7338L21.7433 76.6107C21.9097 75.8491 21.9097 75.0605 21.7433 74.2989L25.4261 72.1725L29.9378 73.6351C30.3545 73.7702 30.8078 73.7343 31.198 73.5352C31.5882 73.3362 31.8833 72.9902 32.0184 72.5736C32.1536 72.1569 32.1176 71.7036 31.9186 71.3134C31.7195 70.9232 31.3736 70.6281 30.9569 70.493L29.2775 69.948L32.0423 68.352C32.4216 68.133 32.6984 67.7723 32.8118 67.3492C32.9252 66.9261 32.8659 66.4753 32.647 66.096C32.428 65.7166 32.0673 65.4398 31.6442 65.3264C31.2211 65.213 30.7703 65.2723 30.391 65.4913L27.6216 67.0902L27.991 65.3608C28.0824 64.9322 27.9999 64.4849 27.7616 64.1172C27.5232 63.7495 27.1485 63.4915 26.72 63.4C26.2914 63.3086 25.8441 63.3911 25.4763 63.6294C25.1086 63.8678 24.8507 64.2425 24.7592 64.671L23.7684 69.3142L20.0922 71.4372C19.516 70.9107 18.8329 70.5147 18.0897 70.2762V66.03L21.6107 62.8513C21.7717 62.706 21.9025 62.5303 21.9956 62.3344C22.0887 62.1385 22.1423 61.9262 22.1533 61.7095C22.1644 61.4929 22.1327 61.2762 22.06 61.0719C21.9873 60.8675 21.8751 60.6794 21.7297 60.5184C21.5843 60.3575 21.4087 60.2267 21.2128 60.1336C21.0169 60.0404 20.8045 59.9868 20.5879 59.9758C20.3713 59.9647 20.1546 59.9965 19.9502 60.0691C19.7458 60.1418 19.5578 60.2541 19.3968 60.3994L18.0897 61.5789V58.3901C18.0897 57.9521 17.9157 57.5321 17.6061 57.2224C17.2964 56.9128 16.8764 56.7388 16.4384 56.7388C16.0005 56.7388 15.5805 56.9128 15.2708 57.2224C14.9611 57.5321 14.7872 57.9521 14.7872 58.3901V61.5843L13.4701 60.3999C13.3091 60.2547 13.1209 60.1426 12.9166 60.0701C12.7122 59.9976 12.4955 59.9661 12.2789 59.9773C12.0623 59.9885 11.8501 60.0423 11.6543 60.1356C11.4585 60.2288 11.2829 60.3597 11.1377 60.5208C10.8445 60.8461 10.6924 61.2746 10.7151 61.7121C10.7378 62.1495 10.9333 62.56 11.2586 62.8532L14.7848 66.0322V70.2757C14.0408 70.5139 13.3569 70.9097 12.7797 71.4361L9.0997 69.313L8.10894 64.672C8.06365 64.4598 7.977 64.2586 7.85395 64.0799C7.73091 63.9011 7.57386 63.7484 7.39179 63.6304C7.20971 63.5124 7.00617 63.4314 6.79279 63.392C6.57941 63.3526 6.36037 63.3557 6.14817 63.401C5.93597 63.4463 5.73476 63.5329 5.55605 63.656C5.37733 63.779 5.2246 63.9361 5.10658 64.1181C4.98855 64.3002 4.90754 64.5037 4.86818 64.7171C4.82882 64.9305 4.83187 65.1495 4.87716 65.3617L5.2461 67.0902L2.47739 65.492C2.09797 65.273 1.64711 65.2137 1.22398 65.3272C0.800858 65.4406 0.440132 65.7175 0.221159 66.0969C0.00218703 66.4763 -0.0570942 66.9272 0.056357 67.3503C0.169808 67.7734 0.446699 68.1342 0.826115 68.3531L3.59129 69.9487L1.91124 70.4939C1.49456 70.629 1.14864 70.9242 0.949564 71.3143C0.750488 71.7045 0.714568 72.1578 0.849705 72.5745C0.984842 72.9912 1.27997 73.3371 1.67016 73.5362C2.06034 73.7353 2.51364 73.7712 2.93031 73.636L7.44442 72.1718L11.1256 74.2949C10.9576 75.0586 10.9576 75.8496 11.1256 76.6133L7.45149 78.734L2.92913 77.2738C2.5123 77.1393 2.05911 77.1759 1.66925 77.3755C1.27939 77.5751 0.984806 77.9214 0.850295 78.3383C0.715783 78.7551 0.752365 79.2083 0.951994 79.5981C1.15162 79.988 1.49795 80.2826 1.91478 80.4171L3.59554 80.9597L0.826115 82.5569C0.446699 82.7759 0.169808 83.1366 0.056357 83.5597C-0.0570942 83.9829 0.00218703 84.4337 0.221159 84.8131C0.440132 85.1926 0.800858 85.4695 1.22398 85.5829C1.64711 85.6964 2.09797 85.6371 2.47739 85.4181L5.24539 83.8209L4.8781 85.5429C4.83281 85.7551 4.82976 85.9741 4.86913 86.1875C4.90849 86.4009 4.98949 86.6044 5.10752 86.7865C5.22554 86.9686 5.37827 87.1256 5.55699 87.2487C5.73571 87.3717 5.93691 87.4584 6.14911 87.5037C6.36131 87.549 6.58036 87.552 6.79374 87.5126C7.00712 87.4733 7.21066 87.3923 7.39273 87.2742C7.5748 87.1562 7.73185 87.0035 7.8549 86.8248C7.97795 86.6461 8.06459 86.4449 8.10988 86.2327L9.09899 81.5997L12.7839 79.4733C13.3608 79.9976 14.0435 80.3918 14.786 80.6292V84.8793L11.2589 88.0571C11.0978 88.2023 10.9669 88.3779 10.8736 88.5737C10.7804 88.7695 10.7266 88.9818 10.7154 89.1984C10.7042 89.415 10.7358 89.6317 10.8083 89.8361C10.8809 90.0405 10.993 90.2286 11.1382 90.3897C11.2834 90.5508 11.459 90.6817 11.6548 90.775C11.8506 90.8682 12.0629 90.922 12.2795 90.9332C12.4961 90.9444 12.7128 90.9128 12.9172 90.8403C13.1217 90.7677 13.3098 90.6556 13.4709 90.5104L14.7853 89.3252V92.52C14.7853 92.9579 14.9592 93.378 15.2689 93.6876C15.5786 93.9973 15.9986 94.1713 16.4365 94.1713C16.8745 94.1713 17.2945 93.9973 17.6042 93.6876C17.9138 93.378 18.0878 92.9579 18.0878 92.52V89.3293L19.3949 90.5087C19.72 90.8023 20.1484 90.9547 20.5858 90.9325C21.0233 90.9102 21.434 90.7151 21.7276 90.39C22.0212 90.0649 22.1736 89.6365 22.1513 89.199C22.129 88.7616 21.9339 88.3509 21.6088 88.0573L18.0888 84.8786V80.6271C18.8304 80.3895 19.5122 79.9951 20.088 79.4707ZM16.437 77.5814C16.0155 77.5821 15.6033 77.4576 15.2526 77.2239C14.9019 76.9901 14.6284 76.6575 14.4668 76.2682C14.3052 75.879 14.2627 75.4505 14.3448 75.0371C14.4269 74.6236 14.6298 74.2439 14.9278 73.9458C15.2258 73.6478 15.6056 73.4449 16.019 73.3628C16.4325 73.2808 16.8609 73.3232 17.2502 73.4848C17.6395 73.6464 17.9721 73.9199 18.2058 74.2706C18.4396 74.6213 18.564 75.0335 18.5634 75.455C18.5619 76.0185 18.3374 76.5585 17.9389 76.957C17.5405 77.3554 17.0005 77.5799 16.437 77.5814ZM49.8984 20.9569H55.7085C54.413 22.3204 52.6735 23.138 51.2029 23.8287C49.4077 24.6723 47.857 25.4007 47.6576 27.0395C47.3939 29.1651 48.2879 31.0556 50.1742 32.3622C51.783 33.4769 53.9721 34.0506 56.1473 34.0503C57.8262 34.0744 59.4867 33.6984 60.9914 32.9532C63.1824 31.8055 64.3883 29.8988 64.3883 27.5837V21.774C65.7483 23.0693 66.5645 24.8067 67.2545 26.2759C68.0964 28.0687 68.8236 29.6188 70.4655 29.8247C70.7032 29.8541 70.9426 29.869 71.1821 29.8693C73.015 29.8693 74.6316 28.975 75.7894 27.3013C77.7851 24.4163 78.0432 19.6665 76.3768 16.4883C75.2292 14.2987 73.3227 13.0931 71.0083 13.0931H65.1934C66.488 11.7324 68.2266 10.9165 69.6965 10.2267C71.4963 9.38242 73.0504 8.65303 73.2498 7.01049C73.5133 4.88459 72.6194 2.99459 70.7332 1.68796C67.8492 -0.310078 63.0977 -0.569564 59.9162 1.09822C57.725 2.24586 56.5193 4.1526 56.5193 6.46769V12.2799C55.161 10.9858 54.3446 9.24961 53.6548 7.78139C52.8101 5.98363 52.0807 4.43167 50.4353 4.22526C48.3085 3.96412 46.4182 4.85982 45.1116 6.74935C43.1169 9.63341 42.8593 14.382 44.5249 17.56C45.6728 19.7501 47.5807 20.9569 49.8984 20.9569ZM65.8495 16.3966H71.009C72.0795 16.3966 72.8785 16.9283 73.4519 18.0221C74.5406 20.098 74.3637 23.5569 73.0733 25.4222C72.3545 26.4601 71.5702 26.5837 71.126 26.5679C70.794 26.0234 70.4997 25.4568 70.2452 24.8721C69.3766 23.0224 68.1242 20.3665 65.6688 18.547C65.8136 18.0526 65.8872 17.5401 65.8872 17.025C65.8867 16.815 65.8741 16.6051 65.8495 16.3966ZM59.8219 6.46651C59.8219 5.39578 60.354 4.5968 61.4495 4.0231C63.529 2.9342 66.9881 3.11159 68.8529 4.40313C69.8908 5.1219 70.0088 5.90626 69.9937 6.35351C69.4486 6.68663 68.8811 6.9815 68.2952 7.236C66.4467 8.10339 63.7922 9.35411 61.9732 11.807C61.2759 11.6019 60.5443 11.5403 59.8226 11.626L59.8219 6.46651ZM60.4505 14.892C60.8724 14.8921 61.2847 15.0172 61.6355 15.2516C61.9862 15.486 62.2595 15.8191 62.421 16.2089C62.5824 16.5986 62.6246 17.0275 62.5422 17.4413C62.4599 17.855 62.2567 18.235 61.9584 18.5333C61.6601 18.8316 61.2801 19.0347 60.8663 19.117C60.4526 19.1993 60.0237 19.157 59.634 18.9956C59.2442 18.8341 58.9111 18.5607 58.6768 18.21C58.4424 17.8592 58.3173 17.4468 58.3173 17.025C58.3179 16.4594 58.5429 15.9172 58.9428 15.5174C59.3427 15.1175 59.885 14.8926 60.4505 14.892ZM58.9285 22.243C59.4229 22.3878 59.9354 22.4614 60.4505 22.4614C60.6627 22.461 60.8748 22.4483 61.0855 22.4232V27.5837C61.0855 28.6542 60.5534 29.4534 59.4579 30.0271C57.3782 31.116 53.9188 30.9384 52.0545 29.6468C51.0182 28.929 50.8986 28.1461 50.9137 27.6988C51.4573 27.3669 52.023 27.0727 52.607 26.8184C54.4562 25.9501 57.1109 24.6977 58.9285 22.243ZM47.8275 8.62755C48.5477 7.58631 49.3344 7.46836 49.7776 7.48228C50.1122 8.02903 50.4084 8.59836 50.6641 9.18616C51.532 11.033 52.7834 13.6849 55.2323 15.502C55.027 16.1995 54.9653 16.9314 55.0511 17.6534H49.8984C48.8251 17.6534 48.0242 17.1208 47.4498 16.0257C46.3614 13.9487 46.5381 10.4918 47.8275 8.62755ZM115.889 65.9956C115.64 65.747 115.319 65.5842 114.972 65.5307C114.625 65.4773 114.269 65.536 113.958 65.6983C113.646 65.8607 113.394 66.1182 113.239 66.4335C113.084 66.7488 113.033 67.1053 113.095 67.4513C113.509 69.8011 113.23 71.2728 112.647 72.2343C111.424 64.4498 107.614 59.8243 101.293 58.4679C100.98 58.4006 100.654 58.4258 100.355 58.5404C100.056 58.655 99.7969 58.8541 99.609 59.1135C99.4211 59.3728 99.3127 59.6812 99.2969 60.0011C99.2812 60.321 99.3588 60.6386 99.5203 60.9151C101.321 64.0018 100.625 66.2058 99.6602 69.2562C99.4569 69.8985 99.2453 70.568 99.0528 71.2714C97.2753 68.8096 94.5944 66.4721 90.7823 66.8583C90.4934 66.8876 90.2173 66.9926 89.982 67.1627C89.7466 67.3328 89.5602 67.5619 89.4417 67.827C89.3231 68.0921 89.2766 68.3837 89.3067 68.6725C89.3369 68.9614 89.4427 69.2371 89.6134 69.472C90.8537 71.1794 90.9387 73.9962 91.0288 76.9782C91.1309 80.3671 91.2465 84.2082 93.2054 87.226C95.4641 90.7062 99.6852 92.4228 106.109 92.474H106.239C109.096 92.5031 111.896 91.6716 114.274 90.0878C116.652 88.5039 118.498 86.241 119.572 83.5934C122.068 77.6335 120.623 70.7256 115.889 65.9956ZM116.526 82.318C114.725 86.6155 110.888 89.1712 106.241 89.1712H106.135C100.906 89.1297 97.5829 87.9052 95.9748 85.4283C94.5193 83.1854 94.4229 79.9791 94.3292 76.8794C94.2655 74.7608 94.2006 72.5967 93.6968 70.6517C95.1093 71.4177 96.7521 73.1876 98.498 77.0525C98.6546 77.4002 98.9268 77.683 99.2682 77.8528C99.6097 78.0227 99.9994 78.069 100.371 77.9841C100.743 77.8992 101.074 77.6882 101.308 77.387C101.542 77.0858 101.664 76.7129 101.654 76.3316C101.599 74.0802 102.214 72.1343 102.809 70.2521C103.535 67.9554 104.279 65.605 103.776 62.8992C107.304 64.9515 109.245 69.0979 109.682 75.4626C109.7 75.7258 109.781 75.9809 109.918 76.2065C110.055 76.4321 110.244 76.6216 110.469 76.7591C110.694 76.8966 110.949 76.9782 111.212 76.997C111.475 77.0158 111.739 76.9713 111.982 76.8671C113.693 76.1323 115.52 74.737 116.255 72.0895C117.017 73.6795 117.435 75.4122 117.481 77.1746C117.528 78.937 117.202 80.6901 116.526 82.318Z" fill="#101D42"/>
</svg>
