<svg width="21" height="20" viewBox="0 0 21 20" fill="none" xmlns="http://www.w3.org/2000/svg">
<path d="M7.10374 9.09483L7.426 9.63521C7.29876 9.8646 7.19801 10.1077 7.12569 10.3599L6.51661 10.5134C6.46112 10.5273 6.41107 10.5575 6.37287 10.6001C6.33466 10.6426 6.31005 10.6956 6.30218 10.7523C6.24853 11.1376 6.24853 11.5285 6.30218 11.9138C6.31005 11.9705 6.33467 12.0235 6.37288 12.0661C6.41108 12.1086 6.46113 12.1388 6.51661 12.1527L7.12569 12.3063C7.19815 12.5586 7.29888 12.8019 7.42596 13.0315L7.10374 13.5713C7.07451 13.6204 7.06057 13.6771 7.06372 13.7341C7.06687 13.7911 7.08696 13.8459 7.12142 13.8915C7.23879 14.0462 7.36633 14.1929 7.5032 14.3306C7.64062 14.4681 7.78732 14.5961 7.94227 14.7135C7.98791 14.748 8.04283 14.7681 8.09999 14.7712C8.15714 14.7743 8.21391 14.7603 8.26301 14.7309L8.80187 14.408C9.03155 14.5353 9.27496 14.6359 9.5274 14.7081L9.68104 15.3174C9.69502 15.3728 9.72522 15.4228 9.76777 15.461C9.81033 15.4991 9.8633 15.5237 9.91992 15.5316C10.3053 15.5852 10.6962 15.5852 11.0815 15.5316C11.1381 15.5237 11.1911 15.4991 11.2337 15.4609C11.2762 15.4228 11.3064 15.3728 11.3204 15.3173L11.474 14.7081C11.7265 14.636 11.9699 14.5353 12.1996 14.408L12.7383 14.7309C12.7874 14.7603 12.8442 14.7743 12.9014 14.7713C12.9585 14.7682 13.0134 14.7481 13.0591 14.7136C13.3697 14.4783 13.6462 14.2013 13.8809 13.8903C13.915 13.8448 13.9348 13.7901 13.9378 13.7333C13.9407 13.6766 13.9268 13.6202 13.8977 13.5713L13.5754 13.0315C13.7026 12.8019 13.8033 12.5586 13.8758 12.3063L14.4848 12.1527C14.5403 12.1388 14.5903 12.1086 14.6285 12.0661C14.6667 12.0235 14.6913 11.9705 14.6992 11.9139C14.7529 11.5285 14.7529 11.1376 14.6992 10.7523C14.6913 10.6956 14.6667 10.6426 14.6285 10.6C14.5903 10.5575 14.5403 10.5273 14.4848 10.5134L13.8757 10.3599C13.8032 10.1076 13.7025 9.86424 13.5754 9.63455L13.8976 9.09483C13.9269 9.0457 13.9408 8.98895 13.9376 8.93186C13.9344 8.87477 13.9142 8.81993 13.8797 8.77437C13.645 8.46477 13.369 8.18876 13.0594 7.95406C13.0137 7.91945 12.9588 7.89929 12.9016 7.89617C12.8444 7.89305 12.7875 7.90711 12.7384 7.93655L12.1996 8.25872C11.9697 8.13189 11.7263 8.03123 11.474 7.95861L11.3204 7.349C11.3065 7.29351 11.2763 7.24346 11.2337 7.20525C11.1912 7.16703 11.1381 7.14241 11.0815 7.13453C10.6964 7.08159 10.3058 7.08159 9.92074 7.13453C9.86391 7.14224 9.8107 7.1668 9.76796 7.20503C9.72521 7.24326 9.6949 7.29342 9.68092 7.34904L9.52744 7.95816C9.27489 8.03065 9.03136 8.13147 8.80146 8.25868L8.26276 7.93655C8.21367 7.90714 8.15691 7.89308 8.09977 7.89616C8.04262 7.89925 7.98771 7.91934 7.94206 7.95385C7.78704 8.0715 7.64004 8.19935 7.50205 8.33657C7.36602 8.47399 7.23904 8.62007 7.12187 8.77388C7.08718 8.81946 7.06691 8.87438 7.06368 8.93158C7.06045 8.98877 7.0744 9.04563 7.10374 9.09483ZM7.64068 10.6614C7.7127 10.3514 7.83533 10.0555 8.00363 9.78545C8.03147 9.74067 8.04645 9.68908 8.04691 9.63636C8.04737 9.58363 8.03331 9.53179 8.00625 9.48653L7.69909 8.97194C7.76656 8.89184 7.83669 8.81498 7.90827 8.74259C7.98312 8.66843 8.06002 8.59788 8.13881 8.5316L8.65311 8.83877C8.69828 8.86571 8.74999 8.87973 8.80259 8.87929C8.85519 8.87885 8.90666 8.86396 8.95138 8.83626C9.22213 8.66804 9.51865 8.54534 9.82911 8.47307C9.88043 8.46113 9.92748 8.4353 9.9651 8.39841C10.0027 8.36151 10.0295 8.31497 10.0424 8.26389L10.1893 7.68249C10.3964 7.66482 10.6047 7.66469 10.8118 7.68213L10.9588 8.26389C10.9716 8.31488 10.9983 8.36136 11.0358 8.39825C11.0732 8.43514 11.1202 8.46102 11.1713 8.47307C11.4819 8.54585 11.7785 8.66856 12.0497 8.83643C12.0944 8.86413 12.1459 8.87902 12.1985 8.87947C12.2511 8.87992 12.3028 8.86591 12.348 8.83897L12.8623 8.53185C13.0211 8.66588 13.1683 8.81312 13.3023 8.97198L12.9953 9.48513C12.9681 9.53035 12.954 9.58218 12.9544 9.63491C12.9547 9.68765 12.9696 9.73927 12.9974 9.78409C13.1656 10.0548 13.2883 10.3512 13.3606 10.6616C13.3725 10.7129 13.3983 10.76 13.4352 10.7977C13.4721 10.8354 13.5187 10.8622 13.5698 10.8751L14.1517 11.0221C14.1695 11.2292 14.1695 11.4374 14.1517 11.6445L13.5698 11.7914C13.5187 11.8044 13.4721 11.8312 13.4352 11.8688C13.3983 11.9065 13.3725 11.9536 13.3606 12.005C13.2883 12.3154 13.1656 12.6118 12.9974 12.8825C12.9696 12.9273 12.9547 12.9789 12.9544 13.0316C12.954 13.0844 12.9681 13.1362 12.9953 13.1814L13.3026 13.695C13.2378 13.7718 13.1672 13.8487 13.092 13.9247C13.0182 13.9985 12.9412 14.0693 12.8623 14.136L12.3487 13.8281C12.3034 13.8009 12.2514 13.7867 12.1985 13.7871C12.1457 13.7876 12.0939 13.8026 12.0491 13.8306C11.7788 13.9991 11.4826 14.1216 11.1723 14.1933C11.1209 14.2052 11.0737 14.2311 11.0361 14.2681C10.9984 14.305 10.9716 14.3516 10.9587 14.4028L10.8119 14.9844C10.6047 15.0022 10.3964 15.0022 10.1892 14.9844L10.0424 14.4028C10.0295 14.3517 10.0028 14.305 9.96508 14.2681C9.92741 14.2311 9.88027 14.2053 9.82886 14.1934C9.51858 14.1216 9.2223 13.999 8.95203 13.8306C8.90718 13.8026 8.8555 13.7876 8.80268 13.7872C8.74985 13.7868 8.69792 13.8009 8.65262 13.8281L8.13906 14.136C8.06019 14.0694 7.98361 13.999 7.91023 13.9256C7.836 13.8507 7.76533 13.7735 7.69896 13.6948L8.00605 13.1815C8.03318 13.1363 8.04734 13.0845 8.04697 13.0317C8.0466 12.979 8.03172 12.9274 8.00395 12.8826C7.83572 12.6119 7.71301 12.3154 7.64072 12.005C7.62882 11.9537 7.60301 11.9066 7.56611 11.8689C7.52921 11.8313 7.48265 11.8045 7.43154 11.7915L6.84969 11.6443C6.83189 11.4372 6.83189 11.229 6.84969 11.0219L7.43154 10.8749C7.48265 10.8619 7.5292 10.8352 7.56609 10.7975C7.60298 10.7598 7.62879 10.7127 7.64068 10.6614ZM16.5117 16.2941C16.539 16.3201 16.5609 16.3513 16.5762 16.3858C16.5914 16.4203 16.5997 16.4575 16.6006 16.4952C16.6014 16.5329 16.5949 16.5704 16.5813 16.6056C16.5676 16.6407 16.5472 16.6729 16.5211 16.7001C15.7256 17.5342 14.7657 18.1943 13.7021 18.6386C12.6385 19.0829 11.4943 19.3019 10.3418 19.2816C9.18935 19.2614 8.05358 19.0023 7.00627 18.5209C5.95896 18.0395 5.02286 17.3461 4.2571 16.4845C4.23204 16.4563 4.21277 16.4235 4.20041 16.3879C4.18804 16.3522 4.18281 16.3145 4.18502 16.2769C4.18723 16.2392 4.19683 16.2024 4.21328 16.1685C4.22973 16.1345 4.2527 16.1041 4.28088 16.0791C4.30907 16.054 4.34191 16.0348 4.37754 16.0224C4.41317 16.01 4.45088 16.0048 4.48853 16.007C4.52618 16.0092 4.56302 16.0188 4.59696 16.0353C4.6309 16.0517 4.66126 16.0747 4.68632 16.1029C5.39934 16.9051 6.27097 17.5507 7.24616 17.999C8.22134 18.4473 9.27889 18.6885 10.352 18.7073C11.4251 18.7262 12.4905 18.5223 13.4808 18.1086C14.4712 17.6948 15.3649 17.0802 16.1057 16.3035C16.1317 16.2762 16.1629 16.2543 16.1974 16.2391C16.2319 16.2238 16.2691 16.2156 16.3068 16.2147C16.3445 16.2138 16.382 16.2204 16.4172 16.234C16.4523 16.2476 16.4845 16.268 16.5117 16.2941ZM10.5007 13.8824C11.0905 13.882 11.6619 13.6771 12.1176 13.3026C12.5732 12.9282 12.885 12.4073 12.9997 11.8288C13.1143 11.2503 13.0249 10.6499 12.7466 10.1299C12.4682 9.60998 12.0182 9.2026 11.4732 8.97722C10.9282 8.75183 10.3219 8.72239 9.75762 8.89391C9.19333 9.06542 8.70597 9.42728 8.37856 9.91784C8.05116 10.4084 7.90397 10.9973 7.96207 11.5842C8.02017 12.1711 8.27997 12.7197 8.6972 13.1365C8.93389 13.3735 9.21506 13.5614 9.52456 13.6894C9.83407 13.8174 10.1658 13.883 10.5007 13.8824ZM9.10338 9.93573C9.37975 9.65936 9.73186 9.47116 10.1152 9.39491C10.4985 9.31866 10.8959 9.35779 11.2569 9.50736C11.618 9.65693 11.9267 9.91022 12.1438 10.2352C12.3609 10.5602 12.4768 10.9422 12.4768 11.3331C12.4768 11.7239 12.3609 12.106 12.1438 12.4309C11.9267 12.7559 11.618 13.0092 11.2569 13.1588C10.8959 13.3083 10.4985 13.3475 10.1152 13.2712C9.73186 13.195 9.37975 13.0068 9.10338 12.7304C8.91912 12.5473 8.77288 12.3296 8.67309 12.0898C8.5733 11.85 8.52193 11.5928 8.52193 11.3331C8.52193 11.0733 8.5733 10.8161 8.67309 10.5763C8.77288 10.3365 8.91912 10.1188 9.10338 9.93573ZM14.112 3.75188C14.1302 3.71883 14.1547 3.68968 14.1841 3.6661C14.2136 3.64253 14.2474 3.62498 14.2836 3.61447C14.3198 3.60395 14.3577 3.60068 14.3952 3.60484C14.4327 3.60899 14.469 3.62049 14.5021 3.63868C16.7632 4.88269 18.1409 6.81329 18.5971 9.37677C18.6037 9.4139 18.6029 9.45197 18.5948 9.4888C18.5867 9.52563 18.5714 9.5605 18.5498 9.59142C18.5282 9.62234 18.5008 9.64871 18.469 9.66902C18.4372 9.68932 18.4018 9.70317 18.3646 9.70977C18.3275 9.71637 18.2894 9.7156 18.2526 9.70749C18.2158 9.69938 18.1809 9.68409 18.15 9.6625C18.1191 9.64092 18.0927 9.61345 18.0724 9.58167C18.0521 9.54989 18.0382 9.51443 18.0316 9.4773C17.6074 7.09326 16.3267 5.29821 14.2254 4.14207C14.1923 4.12391 14.1631 4.09941 14.1395 4.06997C14.1159 4.04052 14.0983 4.00672 14.0878 3.97048C14.0773 3.93424 14.074 3.89628 14.0781 3.85877C14.0823 3.82126 14.0938 3.78494 14.112 3.75188ZM2.40873 8.88167C2.71297 7.69516 3.27441 6.59008 4.05326 5.6447C4.83212 4.69931 5.80933 3.93677 6.91569 3.41109C6.98449 3.37841 7.06345 3.3744 7.1352 3.39994C7.20696 3.42548 7.26562 3.47848 7.2983 3.54728C7.33098 3.61608 7.33499 3.69504 7.30945 3.76679C7.28391 3.83855 7.23091 3.89722 7.16211 3.92989C6.13046 4.41714 5.21927 5.12642 4.49377 6.00697C3.76827 6.88752 3.2464 7.91757 2.96551 9.02338C2.94672 9.09719 2.89938 9.16052 2.8339 9.19942C2.76841 9.23833 2.69016 9.24963 2.61635 9.23083C2.54253 9.21204 2.47921 9.1647 2.4403 9.09922C2.4014 9.03374 2.38993 8.95548 2.40873 8.88167ZM3.49273 13.8177L4.13278 14.1872L4.3048 14.9932C4.3207 15.0677 4.36555 15.1329 4.42949 15.1743C4.49342 15.2157 4.5712 15.2301 4.64572 15.2142C4.72023 15.1983 4.78538 15.1534 4.82682 15.0895C4.86827 15.0256 4.88261 14.9478 4.86671 14.8733L4.80277 14.5739L5.284 14.8517C5.34996 14.8898 5.42834 14.9001 5.50191 14.8804C5.57547 14.8606 5.63818 14.8125 5.67626 14.7466C5.71433 14.6806 5.72464 14.6022 5.70492 14.5287C5.68521 14.4551 5.63707 14.3924 5.57111 14.3543L5.09 14.0765L5.38207 13.9822C5.45455 13.9588 5.51476 13.9076 5.54947 13.8398C5.58418 13.772 5.59054 13.6932 5.56716 13.6208C5.54377 13.5483 5.49255 13.4881 5.42476 13.4534C5.35698 13.4186 5.27818 13.4123 5.2057 13.4357L4.4198 13.6896L3.78053 13.3204C3.80947 13.188 3.80947 13.0509 3.78053 12.9185L4.42087 12.5488L5.20534 12.803C5.27778 12.8265 5.3566 12.8203 5.42444 12.7857C5.49228 12.7511 5.5436 12.6909 5.56709 12.6185C5.59059 12.546 5.58434 12.4672 5.54973 12.3994C5.51512 12.3315 5.45497 12.2802 5.38252 12.2567L5.09053 12.162L5.57124 11.8845C5.6372 11.8464 5.68533 11.7837 5.70505 11.7101C5.72476 11.6366 5.71445 11.5582 5.67638 11.4922C5.63831 11.4263 5.57559 11.3781 5.50203 11.3584C5.42847 11.3387 5.35009 11.349 5.28413 11.3871L4.8026 11.6651L4.86683 11.3644C4.88274 11.2899 4.86839 11.2121 4.82694 11.1482C4.7855 11.0842 4.72036 11.0394 4.64584 11.0235C4.57133 11.0076 4.49355 11.0219 4.42961 11.0634C4.36568 11.1048 4.32082 11.1699 4.30492 11.2445L4.13265 12.0518L3.49347 12.4209C3.39328 12.3294 3.27451 12.2605 3.14528 12.219V11.4807L3.75748 10.9281C3.78548 10.9028 3.80822 10.8722 3.82441 10.8382C3.84059 10.8041 3.84992 10.7672 3.85184 10.7295C3.85376 10.6919 3.84824 10.6542 3.8356 10.6187C3.82297 10.5831 3.80345 10.5504 3.77818 10.5224C3.7529 10.4944 3.72236 10.4717 3.6883 10.4555C3.65423 10.4393 3.61732 10.43 3.57965 10.4281C3.54198 10.4262 3.50431 10.4317 3.46877 10.4443C3.43324 10.457 3.40054 10.4765 3.37255 10.5017L3.14528 10.7068V10.1524C3.14528 10.0762 3.11504 10.0032 3.06119 9.94936C3.00735 9.89551 2.93432 9.86526 2.85818 9.86526C2.78203 9.86526 2.709 9.89551 2.65516 9.94936C2.60131 10.0032 2.57107 10.0762 2.57107 10.1524V10.7078L2.34208 10.5018C2.31407 10.4766 2.28136 10.4571 2.24582 10.4445C2.21028 10.4319 2.17261 10.4264 2.13495 10.4283C2.09729 10.4303 2.06039 10.4396 2.02634 10.4559C1.9923 10.4721 1.96178 10.4948 1.93653 10.5228C1.88554 10.5794 1.85911 10.6539 1.86305 10.73C1.867 10.806 1.90099 10.8774 1.95755 10.9284L2.57066 11.4811V12.2189C2.4413 12.2604 2.32239 12.3292 2.22202 12.4207L1.58218 12.0516L1.40991 11.2446C1.40204 11.2077 1.38697 11.1727 1.36558 11.1417C1.34418 11.1106 1.31688 11.084 1.28522 11.0635C1.25356 11.043 1.21817 11.0289 1.18107 11.0221C1.14397 11.0152 1.10589 11.0158 1.06899 11.0236C1.0321 11.0315 0.997112 11.0466 0.966039 11.068C0.934965 11.0894 0.908409 11.1167 0.887888 11.1483C0.867367 11.18 0.853282 11.2154 0.846438 11.2525C0.839594 11.2896 0.840125 11.3277 0.847999 11.3645L0.912148 11.6651L0.430747 11.3872C0.364778 11.3491 0.286385 11.3388 0.212816 11.3585C0.139246 11.3783 0.0765264 11.4264 0.0384533 11.4924C0.000380263 11.5583 -0.00992705 11.6367 0.00979888 11.7103C0.0295248 11.7839 0.0776682 11.8466 0.143638 11.8847L0.624423 12.1621L0.33231 12.2569C0.259862 12.2804 0.199716 12.3317 0.165102 12.3995C0.130489 12.4674 0.124243 12.5462 0.14774 12.6186C0.171236 12.6911 0.22255 12.7512 0.290393 12.7858C0.358235 12.8205 0.43705 12.8267 0.509497 12.8032L1.29437 12.5486L1.93442 12.9178C1.90522 13.0505 1.90522 13.1881 1.93442 13.3209L1.2956 13.6896L0.509292 13.4357C0.436817 13.4123 0.35802 13.4187 0.290235 13.4534C0.22245 13.4881 0.17123 13.5483 0.147842 13.6208C0.124454 13.6933 0.130815 13.7721 0.165525 13.8399C0.200235 13.9076 0.26045 13.9589 0.332925 13.9822L0.625161 14.0766L0.143638 14.3543C0.0776682 14.3924 0.0295248 14.4551 0.00979888 14.5287C-0.00992705 14.6022 0.000380263 14.6806 0.0384533 14.7466C0.0765264 14.8126 0.139246 14.8607 0.212816 14.8804C0.286385 14.9002 0.364778 14.8899 0.430747 14.8518L0.912025 14.5741L0.848163 14.8735C0.840289 14.9104 0.839758 14.9485 0.846602 14.9856C0.853447 15.0227 0.867531 15.058 0.888052 15.0897C0.908573 15.1214 0.935129 15.1487 0.966203 15.1701C0.997276 15.1915 1.03226 15.2065 1.06916 15.2144C1.10605 15.2223 1.14414 15.2228 1.18124 15.216C1.21834 15.2091 1.25373 15.195 1.28539 15.1745C1.31704 15.154 1.34435 15.1274 1.36574 15.0964C1.38714 15.0653 1.4022 15.0303 1.41008 14.9934L1.58206 14.1879L2.22276 13.8181C2.32306 13.9093 2.44177 13.9778 2.57086 14.0191V14.7581L1.9576 15.3106C1.92959 15.3359 1.90683 15.3664 1.89061 15.4004C1.8744 15.4345 1.86505 15.4714 1.86311 15.5091C1.86116 15.5467 1.86665 15.5844 1.87926 15.6199C1.89187 15.6555 1.91136 15.6882 1.93662 15.7162C1.96187 15.7442 1.99239 15.767 2.02644 15.7832C2.06049 15.7994 2.0974 15.8087 2.13506 15.8107C2.17272 15.8126 2.2104 15.8072 2.24594 15.7945C2.28148 15.7819 2.31419 15.7624 2.3422 15.7372L2.57074 15.5311V16.0866C2.57074 16.1627 2.60099 16.2358 2.65483 16.2896C2.70867 16.3435 2.7817 16.3737 2.85785 16.3737C2.93399 16.3737 3.00702 16.3435 3.06086 16.2896C3.11471 16.2358 3.14496 16.1627 3.14496 16.0866V15.5318L3.37222 15.7369C3.42875 15.7879 3.50323 15.8144 3.57929 15.8106C3.65535 15.8067 3.72676 15.7728 3.77781 15.7162C3.82885 15.6597 3.85535 15.5852 3.85148 15.5092C3.84761 15.4331 3.81368 15.3617 3.75716 15.3107L3.14512 14.758V14.0188C3.27407 13.9774 3.39262 13.9089 3.49273 13.8177ZM2.85793 13.4892C2.78464 13.4893 2.71297 13.4677 2.65199 13.427C2.59101 13.3864 2.54346 13.3286 2.51536 13.2609C2.48727 13.1932 2.47988 13.1187 2.49415 13.0468C2.50842 12.9749 2.5437 12.9089 2.59552 12.8571C2.64734 12.8053 2.71337 12.77 2.78526 12.7557C2.85714 12.7414 2.93164 12.7488 2.99932 12.7769C3.06701 12.805 3.12483 12.8526 3.16548 12.9135C3.20612 12.9745 3.22776 13.0462 3.22764 13.1195C3.22738 13.2175 3.18835 13.3113 3.11907 13.3806C3.04979 13.4499 2.9559 13.4889 2.85793 13.4892ZM8.67591 3.64381H9.68613C9.46087 3.88088 9.15842 4.02304 8.90273 4.14313C8.5906 4.28981 8.32097 4.41646 8.28631 4.7014C8.24045 5.07099 8.3959 5.39969 8.72386 5.62687C9.00359 5.82067 9.38421 5.92042 9.76242 5.92038C10.0543 5.92458 10.3431 5.85919 10.6047 5.72962C10.9856 5.53008 11.1953 5.19855 11.1953 4.79602V3.78589C11.4318 4.0111 11.5737 4.31318 11.6936 4.56863C11.84 4.88035 11.9665 5.14986 12.2519 5.18567C12.2933 5.19079 12.3349 5.19338 12.3765 5.19342C12.6952 5.19342 12.9763 5.03793 13.1776 4.74692C13.5246 4.2453 13.5695 3.41945 13.2798 2.86685C13.0802 2.48614 12.7487 2.27651 12.3463 2.27651H11.3353C11.5604 2.03993 11.8627 1.89806 12.1182 1.77813C12.4312 1.63134 12.7014 1.50452 12.7361 1.21892C12.7819 0.849291 12.6265 0.520674 12.2985 0.293489C11.797 -0.0539138 10.9709 -0.099031 10.4177 0.190949C10.0367 0.390491 9.8271 0.72202 9.8271 1.12455V2.13513C9.59093 1.91012 9.44898 1.60824 9.32905 1.35296C9.18217 1.04038 9.05535 0.770541 8.76927 0.734653C8.39947 0.689248 8.07081 0.844985 7.84363 1.17352C7.4968 1.67498 7.45201 2.50062 7.74162 3.05318C7.9412 3.43397 8.27294 3.64381 8.67591 3.64381ZM11.4493 2.85089H12.3464C12.5326 2.85089 12.6715 2.94334 12.7712 3.13353C12.9605 3.49447 12.9297 4.09588 12.7054 4.42019C12.5804 4.60066 12.444 4.62215 12.3668 4.61941C12.3091 4.52473 12.2579 4.42622 12.2136 4.32455C12.0626 4.00294 11.8449 3.54115 11.4179 3.22479C11.4431 3.13884 11.4559 3.04973 11.4559 2.96016C11.4558 2.92364 11.4536 2.88716 11.4493 2.85089ZM10.4013 1.12434C10.4013 0.938172 10.4938 0.799252 10.6843 0.699502C11.0459 0.510174 11.6473 0.541018 11.9716 0.765578C12.152 0.890553 12.1725 1.02693 12.1699 1.1047C12.0751 1.16261 11.9765 1.21388 11.8746 1.25814C11.5532 1.40895 11.0917 1.62641 10.7754 2.05289C10.6541 2.01723 10.5269 2.00653 10.4014 2.02144L10.4013 1.12434ZM10.5106 2.5893C10.584 2.58931 10.6557 2.61106 10.7167 2.65182C10.7776 2.69257 10.8252 2.7505 10.8532 2.81827C10.8813 2.88603 10.8886 2.9606 10.8743 3.03254C10.86 3.10448 10.8247 3.17055 10.7728 3.22241C10.7209 3.27428 10.6549 3.30959 10.5829 3.3239C10.511 3.33821 10.4364 3.33086 10.3687 3.30279C10.3009 3.27472 10.243 3.22718 10.2022 3.1662C10.1615 3.10521 10.1397 3.03351 10.1397 2.96016C10.1398 2.86183 10.1789 2.76755 10.2485 2.69803C10.318 2.6285 10.4123 2.5894 10.5106 2.5893ZM10.246 3.86743C10.3319 3.89261 10.4211 3.9054 10.5106 3.90541C10.5475 3.90533 10.5844 3.90311 10.621 3.89876V4.79602C10.621 4.98215 10.5285 5.12111 10.338 5.22086C9.97644 5.41019 9.37494 5.3793 9.0508 5.15474C8.87061 5.02993 8.84982 4.8938 8.85245 4.81604C8.94696 4.75832 9.04533 4.70718 9.14686 4.66296C9.46838 4.51199 9.92997 4.29423 10.246 3.86743ZM8.31584 1.50009C8.44106 1.31904 8.57785 1.29854 8.65491 1.30096C8.71309 1.39602 8.76459 1.49501 8.80905 1.59721C8.95995 1.91832 9.17754 2.37942 9.60332 2.69536C9.56763 2.81664 9.55691 2.94389 9.57182 3.06943H8.67591C8.48929 3.06943 8.35005 2.97681 8.25017 2.78642C8.06093 2.42528 8.09165 1.82423 8.31584 1.50009ZM20.1497 11.4748C20.1066 11.4315 20.0507 11.4032 19.9903 11.3939C19.9299 11.3846 19.8682 11.3948 19.814 11.4231C19.7598 11.4513 19.716 11.4961 19.6891 11.5509C19.6621 11.6057 19.6533 11.6677 19.664 11.7279C19.7361 12.1364 19.6875 12.3923 19.586 12.5595C19.3734 11.206 18.711 10.4017 17.612 10.1659C17.5576 10.1542 17.5009 10.1586 17.4489 10.1785C17.3969 10.1984 17.3518 10.2331 17.3192 10.2782C17.2865 10.3232 17.2677 10.3769 17.2649 10.4325C17.2622 10.4881 17.2757 10.5433 17.3038 10.5914C17.6169 11.1281 17.4958 11.5113 17.3281 12.0417C17.2927 12.1534 17.2559 12.2698 17.2225 12.3921C16.9134 11.964 16.4473 11.5576 15.7845 11.6248C15.7342 11.6299 15.6862 11.6481 15.6453 11.6777C15.6044 11.7073 15.572 11.7471 15.5514 11.7932C15.5308 11.8393 15.5227 11.89 15.5279 11.9402C15.5331 11.9904 15.5515 12.0384 15.5812 12.0792C15.7969 12.3761 15.8116 12.8658 15.8273 13.3843C15.8451 13.9736 15.8652 14.6414 16.2058 15.1661C16.5985 15.7712 17.3324 16.0697 18.4493 16.0786H18.4719C18.9687 16.0837 19.4555 15.9391 19.8689 15.6637C20.2824 15.3883 20.6034 14.9949 20.7902 14.5345C21.2242 13.4983 20.9729 12.2972 20.1497 11.4748ZM20.2605 14.3128C19.9475 15.06 19.2802 15.5043 18.4722 15.5043H18.4538C17.5447 15.4971 16.9669 15.2842 16.6873 14.8535C16.4342 14.4636 16.4175 13.9061 16.4012 13.3671C16.3901 12.9988 16.3788 12.6225 16.2912 12.2843C16.5368 12.4175 16.8224 12.7252 17.126 13.3972C17.1532 13.4577 17.2006 13.5069 17.2599 13.5364C17.3193 13.5659 17.3871 13.574 17.4517 13.5592C17.5163 13.5445 17.5739 13.5078 17.6145 13.4554C17.6552 13.403 17.6765 13.3382 17.6748 13.2719C17.6651 12.8804 17.7721 12.5421 17.8756 12.2148C18.0018 11.8155 18.1311 11.4068 18.0437 10.9364C18.6571 11.2932 18.9946 12.0142 19.0706 13.1208C19.0738 13.1666 19.0878 13.2109 19.1116 13.2501C19.1354 13.2894 19.1683 13.3223 19.2074 13.3462C19.2466 13.3701 19.2909 13.3843 19.3366 13.3876C19.3824 13.3909 19.4283 13.3831 19.4704 13.365C19.768 13.2372 20.0856 12.9946 20.2135 12.5343C20.3459 12.8108 20.4185 13.112 20.4266 13.4185C20.4347 13.7249 20.3782 14.0297 20.2605 14.3128Z" fill="#00C1D9"/>
</svg>
