<svg width="200" height="200" viewBox="0 0 200 200" fill="none" xmlns="http://www.w3.org/2000/svg">
<path fill-rule="evenodd" clip-rule="evenodd" d="M100 200C155.228 200 200 155.228 200 100C200 44.7715 155.228 0 100 0C44.7715 0 0 44.7715 0 100C0 155.228 44.7715 200 100 200ZM154.545 136.364H132.444V104.406C132.444 96.0406 128.987 90.3298 121.384 90.3298C115.57 90.3298 112.336 94.1837 110.831 97.8976C110.267 99.2307 110.354 101.087 110.354 102.944V136.364H88.4588C88.4588 136.364 88.741 79.7531 88.4588 74.6072H110.354V84.299C111.648 80.0612 118.645 74.0129 129.81 74.0129C143.662 74.0129 154.545 82.8964 154.545 102.025V136.364ZM66.3164 66.8823H66.1754C59.1199 66.8823 54.5455 62.1615 54.5455 56.1773C54.5455 50.0767 59.2551 45.4545 66.4517 45.4545C73.6425 45.4545 78.0638 50.0648 78.2049 56.1596C78.2049 62.1437 73.6423 66.8823 66.3164 66.8823ZM57.0679 74.6072H76.5586V136.364H57.0679V74.6072Z" fill="#00C1D9"/>
</svg>
