<svg width="248" height="248" viewBox="0 0 248 248" fill="none" xmlns="http://www.w3.org/2000/svg">
<path d="M0 123.16C0 89.6 0 56.05 0 22.49C0.02 7.79 7.74 0.01 22.36 0C89.97 0 157.57 0 225.18 0.01C239.47 0.01 247.28 7.86 247.28 22.23C247.29 89.84 247.29 157.46 247.28 225.07C247.28 239.43 239.46 247.3 225.18 247.3C157.41 247.31 89.64 247.32 21.86 247.3C7.92 247.3 0.02 239.34 0.01 225.32C-0.01 191.26 0.01 157.21 0.01 123.15L0 123.16ZM123.14 239.3C157.03 239.3 190.92 239.3 224.8 239.3C235.04 239.3 239.26 235.04 239.26 224.72C239.26 157.44 239.26 90.15 239.26 22.87C239.26 12.17 235.16 8.03 224.56 8.03C157.28 8.03 90 8.03 22.73 8.03C12.13 8.03 8.02 12.18 8.02 22.86C8.02 89.98 8.02 157.1 8.02 224.22C8.02 235.24 12.05 239.31 22.97 239.31C56.36 239.31 89.75 239.31 123.14 239.31V239.3Z" fill="black"/>
<path d="M134.02 98.39C144 90.05 155.43 86.44 168.17 86.88C187.67 87.57 202.08 98.11 205.86 114.89C206.91 119.54 207.27 124.43 207.3 129.22C207.45 153.13 207.4 177.05 207.39 200.97C207.39 206.78 206.7 207.41 200.65 207.42C193.01 207.44 185.37 207.44 177.73 207.42C171.83 207.4 171.11 206.72 171.07 200.86C170.91 179.27 170.8 157.68 170.66 136.1C170.66 135.6 170.62 135.1 170.59 134.61C170.12 125.21 166.93 120.44 160.55 119.59C151.48 118.38 143.59 123.06 141.28 131.6C140.17 135.72 139.65 140.1 139.59 144.38C139.35 162.98 139.39 181.58 139.32 200.18C139.29 206.68 138.57 207.43 132.27 207.44C122.47 207.46 112.67 207.31 102.88 207.5C98.2999 207.59 96.7299 205.66 96.7399 201.25C96.8199 166.04 96.8399 130.83 96.7199 95.62C96.6999 90.75 98.7699 89.17 103.33 89.29C109.97 89.47 116.61 89.34 123.26 89.34C129.293 89.34 132.87 92.36 133.99 98.4L134.02 98.39ZM105 97.71V199.03H130.73C130.73 182.88 130.43 167.1 130.86 151.34C131.08 143.44 131.69 135.32 133.81 127.77C136.99 116.49 148.39 110.16 160.39 111.51C170.45 112.64 176.38 119.39 178.06 131.75C178.37 134.05 178.47 136.39 178.48 138.71C178.56 156.98 178.6 175.25 178.66 193.52C178.66 195.3 178.66 197.09 178.66 199.04H199.4C199.4 183.89 199.52 169.12 199.36 154.36C199.24 142.91 199.29 131.43 198.31 120.04C197.37 109.02 191.13 101.49 180.5 97.65C163.47 91.48 146.35 95.91 133.93 109.65C132.37 111.37 129.74 112.12 127.6 113.32C126.64 110.9 125.28 108.56 124.83 106.05C124.35 103.38 124.72 100.56 124.72 97.71H104.99H105Z" fill="black"/>
<path d="M39.8802 148.61C39.8802 131.02 39.9902 113.42 39.8102 95.83C39.7602 91.15 41.3302 89.16 46.1102 89.28C54.2402 89.48 62.3702 89.42 70.5002 89.31C74.4602 89.26 76.2402 90.85 76.2302 94.9C76.1702 130.59 76.1802 166.27 76.2302 201.96C76.2302 205.99 74.4402 207.56 70.4502 207.48C62.4902 207.32 54.5202 207.45 46.5502 207.43C40.5402 207.41 39.9002 206.79 39.8902 200.91C39.8702 183.48 39.8902 166.05 39.8902 148.63L39.8802 148.61ZM48.2502 97.7V199.05H67.6502V97.7H48.2502Z" fill="black"/>
<path d="M58.3699 40.1999C68.2799 40.2899 76.8399 48.6699 76.6699 58.0999C76.4999 67.3899 68.0599 75.4199 58.3599 75.4999C48.4499 75.5899 39.8999 67.3999 39.8999 57.8399C39.8999 48.2699 48.4499 40.0999 58.3699 40.1899V40.1999ZM58.4399 66.8899C63.9099 66.7899 68.6399 62.3499 68.5799 57.3599C68.5199 52.4099 63.6299 47.9399 58.2699 47.9199C52.6799 47.8999 47.6999 52.6499 47.9199 57.7799C48.1399 62.8299 52.9299 66.9899 58.4399 66.8899Z" fill="black"/>
</svg>
