<svg width="41" height="41" viewBox="0 0 41 41" fill="none" xmlns="http://www.w3.org/2000/svg">
<path fill-rule="evenodd" clip-rule="evenodd" d="M7.5414 31.0136V14.7842C7.5414 14.4368 7.82496 14.1519 8.17435 14.1519H13.454C13.8017 14.1519 14.0869 14.4368 14.0869 14.7842V31.0136C14.0869 31.3626 13.8017 31.6459 13.454 31.6459H8.17435C7.82496 31.6459 7.5414 31.3626 7.5414 31.0136ZM12.821 30.3814V15.4164H8.80729V30.3814H12.821ZM7.23083 9.76324C7.23083 7.80411 8.70771 6.32886 10.8496 6.32886C13.0016 6.32886 14.3907 7.81759 14.4346 9.7565C14.4346 11.6785 12.9949 13.201 10.7871 13.201C8.65707 13.201 7.23083 11.6701 7.23083 9.76324ZM13.1687 9.77167C13.14 8.52403 12.3045 7.59336 10.8496 7.59336C9.37272 7.59336 8.49673 8.53583 8.49673 9.76324C8.49673 10.9704 9.35753 11.9365 10.8057 11.9365C12.313 11.9365 13.1687 10.9637 13.1687 9.77167Z" fill="#51D6E6"/>
<path fill-rule="evenodd" clip-rule="evenodd" d="M16.4599 31.0137C16.4599 30.9968 16.5274 16.4467 16.4599 14.9613C16.4431 14.6005 16.7317 14.2987 17.0929 14.2987H22.4856C22.8333 14.2987 23.1185 14.5836 23.1185 14.9309V15.4637L23.4038 15.2108C24.295 14.4909 25.549 13.921 27.3466 13.921C31.281 13.921 34.1875 16.5495 34.1875 21.7913V31.0154C34.1875 31.3644 33.9022 31.6476 33.5545 31.6476H28.1602C27.8108 31.6476 27.5272 31.3644 27.5272 31.0154V22.4117C27.5272 20.461 26.9263 19.4073 25.4292 19.4073C24.2815 19.4073 23.5759 20.1592 23.2485 20.9719C23.1573 21.1911 23.1185 21.5569 23.1185 22.0341V31.0154C23.1185 31.3644 22.8333 31.6476 22.4856 31.6476H17.0929C16.7418 31.6476 16.4582 31.3627 16.4599 31.0137ZM21.8526 30.3831V22.0341C21.8526 21.5519 21.883 20.9567 22.0788 20.4914C22.5244 19.3786 23.6013 18.1428 25.4292 18.1428C27.907 18.1428 28.7931 20.139 28.7931 22.4117V30.3831H32.9216V21.7913C32.9216 17.1666 30.5113 15.1855 27.3466 15.1855C25.868 15.1855 24.8806 15.6391 24.1869 16.2039L23.5877 16.7872L23.0696 17.497C22.9717 17.7364 22.7455 17.8949 22.4569 17.8949C22.0518 17.8949 21.7868 17.5527 21.8155 17.2087L21.8526 17.0536V15.5632H17.7376L17.7393 15.6559C17.7748 18.4581 17.741 27.1544 17.7275 30.0628L17.7258 30.3831H21.8526Z" fill="#51D6E6"/>
<path fill-rule="evenodd" clip-rule="evenodd" d="M0 36.7832V3.71561C0 1.67724 1.65747 0.0198975 3.69978 0.0198975H36.8105C38.8511 0.0198975 40.5102 1.67724 40.5102 3.71561V36.7832C40.5102 38.8232 38.8511 40.4789 36.8105 40.4789H3.69978C1.65747 40.4789 0 38.8232 0 36.7832ZM39.2443 36.7832V3.71561C39.2443 2.37693 38.1506 1.2844 36.8105 1.2844H3.69978C2.35793 1.2844 1.26589 2.37693 1.26589 3.71561V36.7832C1.26589 38.1235 2.35793 39.2144 3.69978 39.2144H36.8105C38.1506 39.2144 39.2443 38.1235 39.2443 36.7832Z" fill="#51D6E6"/>
</svg>
