<svg width="121" height="121" viewBox="0 0 121 121" fill="none" xmlns="http://www.w3.org/2000/svg">
<path d="M120.642 64.6011C120.204 61.9532 118.762 59.6343 116.581 58.0722L66.3966 22.0832C62.8757 19.4562 58.1138 19.41 54.5375 21.9718L4.19864 58.0713C2.0169 59.6341 0.574431 61.9532 0.136856 64.6009C-0.300719 67.2488 0.318963 69.9085 1.88173 72.0903C5.10752 76.594 11.3963 77.6336 15.9004 74.4073C15.9006 74.4071 15.9011 74.4068 15.9014 74.4066L21.4674 70.415V111.388C21.4674 116.566 25.6797 120.779 30.8577 120.779H89.9214C95.0991 120.779 99.3117 116.566 99.3117 111.388V70.415L104.879 74.4073C106.647 75.6743 108.69 76.2834 110.716 76.2834C113.849 76.2831 116.938 74.8255 118.897 72.0906C120.46 69.9088 121.08 67.249 120.642 64.6011ZM94.5936 111.388C94.5936 113.965 92.4975 116.061 89.9211 116.061H30.8577C28.2813 116.061 26.1852 113.965 26.1852 111.388V67.0318L60.3894 42.5031L94.5936 67.0318V111.388ZM115.062 69.3431C113.35 71.732 110.015 72.2831 107.627 70.5726L61.7642 37.6832C61.3533 37.3886 60.8713 37.2412 60.3894 37.2412C59.9075 37.2412 59.4256 37.3886 59.0146 37.6832L13.153 70.5719C10.7644 72.2831 7.4282 71.732 5.71706 69.3428C4.88814 68.1855 4.55931 66.7749 4.79143 65.3703C5.02354 63.9658 5.78877 62.7359 6.94675 61.906L57.2856 25.8066C59.1864 24.445 61.7186 24.4719 63.5866 25.8733C63.6003 25.8835 63.614 25.8934 63.6277 25.9033L113.833 61.9065C114.99 62.7354 115.755 63.9656 115.987 65.3701C116.219 66.7746 115.891 68.1858 115.062 69.3431ZM69.8137 83.6686C70.7348 84.5897 70.7348 86.0834 69.8137 87.0046C69.3532 87.4651 68.7493 87.6956 68.1457 87.6956C67.5418 87.6956 66.9382 87.4653 66.4777 87.0046C64.8515 85.3783 62.6896 84.4829 60.3896 84.4829C58.0897 84.4829 55.9276 85.3786 54.3013 87.0049C53.3802 87.926 51.8865 87.926 50.9651 87.0049C50.0438 86.0837 50.044 84.59 50.9651 83.6686C53.4826 81.1513 56.8294 79.765 60.3894 79.765C63.9495 79.7647 67.2965 81.1511 69.8137 83.6686ZM60.3894 69.5268C66.6841 69.5268 72.6019 71.9783 77.0529 76.4292C77.974 77.3503 77.974 78.844 77.0529 79.7654C76.5922 80.2261 75.9885 80.4564 75.3849 80.4564C74.7813 80.4564 74.1774 80.2261 73.7169 79.7654C70.1571 76.2055 65.424 74.245 60.3894 74.245C55.3548 74.245 50.6217 76.2055 47.0619 79.7654C46.1407 80.6866 44.6471 80.6866 43.7257 79.7654C42.8043 78.8443 42.8046 77.3506 43.7257 76.4292C48.1769 71.978 54.0947 69.5268 60.3894 69.5268ZM63.338 93.0929C63.338 94.717 62.0135 96.0416 60.3894 96.0416C58.7653 96.0416 57.4408 94.717 57.4408 93.0929C57.4408 91.4687 58.7653 90.1442 60.3894 90.1442C62.0135 90.1442 63.338 91.4687 63.338 93.0929ZM58.0305 12.0807V2.35896C58.0305 1.05611 59.0866 0 60.3894 0C61.6922 0 62.7483 1.05611 62.7483 2.35896V12.0807C62.7483 13.3836 61.6922 14.4397 60.3894 14.4397C59.0866 14.4397 58.0305 13.3836 58.0305 12.0807ZM78.7183 22.032C77.7969 21.1108 77.7969 19.6171 78.7183 18.6959L85.5923 11.8215C86.5135 10.9001 88.0069 10.9001 88.9285 11.8215C89.8496 12.7426 89.8496 14.2363 88.9285 15.1575L82.0544 22.032C81.5937 22.4927 80.9901 22.7229 80.3865 22.7229C79.7828 22.7229 79.1789 22.4927 78.7183 22.032ZM31.8506 15.1575C30.9294 14.2363 30.9294 12.7426 31.8506 11.8212C32.7717 10.8998 34.2653 10.9001 35.1867 11.8212L42.0608 18.6957C42.9819 19.6169 42.9819 21.1106 42.0608 22.032C41.6001 22.4927 40.9965 22.7229 40.3928 22.7229C39.7892 22.7229 39.1853 22.4927 38.7248 22.032L31.8506 15.1575Z" fill="#101D42"/>
</svg>
