<svg width="21" height="21" viewBox="0 0 21 21" fill="none" xmlns="http://www.w3.org/2000/svg">
<path d="M20.9762 11.2323C20.9001 10.7719 20.6493 10.3687 20.2701 10.0971L11.5445 3.83964C10.9323 3.38289 10.1043 3.37485 9.48251 3.82028L0.730024 10.0969C0.350681 10.3687 0.0998772 10.7719 0.0237954 11.2323C-0.0522865 11.6927 0.0554585 12.1551 0.327179 12.5345C0.888052 13.3175 1.9815 13.4983 2.76463 12.9373C2.76467 12.9373 2.76475 12.9372 2.76479 12.9372L3.73257 12.2432V19.3673C3.73257 20.2676 4.46497 21 5.36528 21H15.6348C16.535 21 17.2675 20.2676 17.2675 19.3673V12.2432L18.2354 12.9373C18.5429 13.1576 18.8982 13.2635 19.2504 13.2635C19.795 13.2635 20.3322 13.01 20.6729 12.5345C20.9445 12.1551 21.0523 11.6927 20.9762 11.2323ZM16.4471 19.3673C16.4471 19.8153 16.0827 20.1797 15.6347 20.1797H5.36528C4.91732 20.1797 4.55286 19.8153 4.55286 19.3673V11.6549L10.5 7.39007L16.4471 11.6549V19.3673ZM20.006 12.0568C19.7084 12.4722 19.1284 12.568 18.7132 12.2706L10.739 6.55204C10.6676 6.50081 10.5838 6.47518 10.5 6.47518C10.4162 6.47518 10.3324 6.50081 10.261 6.55204L2.28693 12.2704C1.87162 12.568 1.29155 12.4722 0.994034 12.0567C0.849909 11.8555 0.792735 11.6103 0.833093 11.366C0.873451 11.1218 1.0065 10.908 1.20784 10.7637L9.96033 4.48703C10.2908 4.25029 10.7311 4.25496 11.0559 4.49863C11.0583 4.5004 11.0607 4.50212 11.063 4.50384L19.7923 10.7638C19.9935 10.9079 20.1265 11.1218 20.1669 11.366C20.2072 11.6102 20.1501 11.8556 20.006 12.0568ZM12.1386 14.5476C12.2988 14.7078 12.2988 14.9675 12.1386 15.1276C12.0586 15.2077 11.9536 15.2478 11.8486 15.2478C11.7436 15.2478 11.6386 15.2077 11.5586 15.1276C11.2758 14.8449 10.8999 14.6892 10.5 14.6892C10.1002 14.6892 9.72421 14.8449 9.44146 15.1277C9.2813 15.2878 9.02159 15.2878 8.86139 15.1277C8.70119 14.9675 8.70123 14.7078 8.86139 14.5476C9.2991 14.1099 9.88101 13.8689 10.5 13.8689C11.119 13.8688 11.7009 14.1099 12.1386 14.5476ZM10.5 12.0887C11.5945 12.0887 12.6234 12.515 13.3973 13.2889C13.5575 13.449 13.5575 13.7087 13.3973 13.8689C13.3172 13.949 13.2122 13.9891 13.1073 13.9891C13.0023 13.9891 12.8973 13.949 12.8173 13.8689C12.1983 13.25 11.3754 12.9091 10.5 12.9091C9.62463 12.9091 8.80167 13.25 8.18272 13.8689C8.02256 14.0291 7.76286 14.0291 7.60266 13.8689C7.44245 13.7088 7.44249 13.4491 7.60266 13.2889C8.3766 12.5149 9.40553 12.0887 10.5 12.0887ZM11.0127 16.1862C11.0127 16.4686 10.7824 16.6989 10.5 16.6989C10.2176 16.6989 9.98732 16.4686 9.98732 16.1862C9.98732 15.9038 10.2176 15.6735 10.5 15.6735C10.7824 15.6735 11.0127 15.9038 11.0127 16.1862ZM10.0899 2.10049V0.410156C10.0899 0.183627 10.2735 0 10.5 0C10.7265 0 10.9101 0.183627 10.9101 0.410156V2.10049C10.9101 2.32702 10.7265 2.51065 10.5 2.51065C10.2735 2.51065 10.0899 2.32702 10.0899 2.10049ZM13.6869 3.83074C13.5267 3.67057 13.5267 3.41086 13.6869 3.25069L14.8821 2.05542C15.0422 1.89521 15.3019 1.89521 15.4621 2.05542C15.6223 2.21558 15.6223 2.47529 15.4621 2.63546L14.2669 3.83074C14.1868 3.91084 14.0819 3.95087 13.9769 3.95087C13.872 3.95087 13.767 3.91084 13.6869 3.83074ZM5.53791 2.63546C5.37774 2.47529 5.37774 2.21558 5.53791 2.05537C5.69807 1.89517 5.95777 1.89521 6.11797 2.05537L7.31318 3.25065C7.47334 3.41082 7.47334 3.67053 7.31318 3.83074C7.23307 3.91084 7.12812 3.95087 7.02316 3.95087C6.91821 3.95087 6.81321 3.91084 6.73315 3.83074L5.53791 2.63546Z" fill="#00C1D9"/>
</svg>
