<svg width="41" height="41" viewBox="0 0 41 41" fill="none" xmlns="http://www.w3.org/2000/svg">
<path d="M14.8177 3.67159C14.1723 2.05804 12.6095 1 10.8717 1H5.02632C2.80264 1 1 2.80221 1 5.02588C1 23.9271 16.3229 39.25 35.2241 39.25C37.4478 39.25 39.25 37.4472 39.25 35.2235L39.251 29.3772C39.251 27.6393 38.1932 26.0768 36.5797 25.4314L30.9772 23.1912C29.5278 22.6115 27.8776 22.8724 26.6784 23.8718L25.2325 25.0777C23.5438 26.4849 21.0592 26.373 19.5049 24.8187L15.4335 20.7435C13.8792 19.1892 13.7643 16.7066 15.1715 15.018L16.3772 13.5721C17.3766 12.3729 17.6398 10.7222 17.06 9.27282L14.8177 3.67159Z" stroke="#101D42" stroke-width="2" stroke-linecap="round" stroke-linejoin="round"/>
</svg>
