<svg width="121" height="121" viewBox="0 0 121 121" fill="none" xmlns="http://www.w3.org/2000/svg">
<path d="M44.2872 72.4707H38.248C37.1802 72.4707 36.1562 72.8949 35.4011 73.6499C34.6461 74.405 34.2219 75.429 34.2219 76.4968V108.706C34.2219 109.774 34.6461 110.798 35.4011 111.553C36.1562 112.308 37.1802 112.732 38.248 112.732H44.2872C45.355 112.732 46.3791 112.308 47.1341 111.553C47.8891 110.798 48.3133 109.774 48.3133 108.706V76.4968C48.3133 75.429 47.8891 74.405 47.1341 73.6499C46.3791 72.8949 45.355 72.4707 44.2872 72.4707ZM38.248 108.706V76.4968H44.2872V108.706H38.248Z" fill="#101D42"/>
<path d="M62.4064 72.4707H56.3672C55.2994 72.4707 54.2753 72.8949 53.5203 73.6499C52.7652 74.405 52.3411 75.429 52.3411 76.4968V108.706C52.3411 109.774 52.7652 110.798 53.5203 111.553C54.2753 112.308 55.2994 112.732 56.3672 112.732H62.4064C63.4741 112.732 64.4982 112.308 65.2532 111.553C66.0083 110.798 66.4325 109.774 66.4325 108.706V76.4968C66.4325 75.429 66.0083 74.405 65.2532 73.6499C64.4982 72.8949 63.4741 72.4707 62.4064 72.4707ZM56.3672 108.706V76.4968H62.4064V108.706H56.3672Z" fill="#101D42"/>
<path d="M80.5211 72.4707H74.4819C73.4141 72.4707 72.3901 72.8949 71.635 73.6499C70.88 74.405 70.4558 75.429 70.4558 76.4968V108.706C70.4558 109.774 70.88 110.798 71.635 111.553C72.3901 112.308 73.4141 112.732 74.4819 112.732H80.5211C81.5889 112.732 82.6129 112.308 83.368 111.553C84.123 110.798 84.5472 109.774 84.5472 108.706V76.4968C84.5472 75.429 84.123 74.405 83.368 73.6499C82.6129 72.8949 81.5889 72.4707 80.5211 72.4707ZM74.4819 108.706V76.4968H80.5211V108.706H74.4819Z" fill="#101D42"/>
<path d="M114.74 78.5063H112.727V76.4932C112.723 73.2908 111.45 70.2205 109.185 67.9561C106.921 65.6917 103.851 64.4181 100.648 64.4149H92.596V43.5918C92.999 43.8815 93.4563 44.087 93.9405 44.196C94.4248 44.3049 94.926 44.3151 95.4143 44.2259C95.9148 44.1366 96.392 43.9465 96.8169 43.6673C97.2419 43.388 97.6057 43.0254 97.8863 42.6014L100.01 39.4329C100.549 38.6219 100.755 37.6348 100.585 36.6761C100.416 35.7175 99.8841 34.8607 99.1002 34.2835L52.4919 0.70364C51.8615 0.246289 51.1026 0 50.3238 0C49.545 0 48.7861 0.246289 48.1557 0.70364L34.2173 10.7428V9.3779C34.2157 7.95823 33.6511 6.59716 32.6472 5.5933C31.6433 4.58944 30.2823 4.02477 28.8626 4.02317H23.4676C22.0479 4.02477 20.6869 4.58944 19.683 5.5933C18.6791 6.59716 18.1145 7.95823 18.1129 9.3779V22.342L1.54541 34.2835C0.76101 34.8598 0.228515 35.7159 0.0583541 36.6743C-0.111806 37.6326 0.0934244 38.6197 0.631486 39.4308L2.75728 42.6014C3.10182 43.1187 3.56871 43.5429 4.11652 43.8365C4.66433 44.13 5.27613 44.2839 5.89764 44.2843C6.66922 44.2829 7.421 44.0401 8.04759 43.5898V96.6238C8.04759 98.7594 8.89595 100.808 10.406 102.318C11.9161 103.828 13.9642 104.676 16.0998 104.676H24.152V108.702C24.1552 111.905 25.4288 114.975 27.6932 117.239C29.9577 119.504 33.028 120.777 36.2304 120.781H100.648C103.851 120.777 106.921 119.504 109.185 117.239C111.45 114.975 112.723 111.905 112.727 108.702V106.689H114.74C116.341 106.689 117.877 106.053 119.01 104.92C120.143 103.788 120.779 102.252 120.779 100.65V84.5455C120.779 82.9438 120.143 81.4077 119.01 80.2751C117.877 79.1426 116.341 78.5063 114.74 78.5063ZM22.139 9.3779C22.1371 9.2029 22.1702 9.02929 22.2363 8.86724C22.3024 8.70519 22.4002 8.55798 22.5239 8.43423C22.6477 8.31047 22.7949 8.21268 22.9569 8.14658C23.119 8.08048 23.2926 8.0474 23.4676 8.04929H28.8626C29.0376 8.0474 29.2112 8.08048 29.3733 8.14658C29.5353 8.21268 29.6825 8.31047 29.8063 8.43423C29.93 8.55798 30.0278 8.70519 30.0939 8.86724C30.16 9.02929 30.1931 9.2029 30.1912 9.3779V13.6436L22.139 19.4452V9.3779ZM4.11408 37.3936L50.3218 4.10168L96.5335 37.3977L94.752 40.1857L52.4919 9.75837C51.862 9.3006 51.1034 9.05404 50.3248 9.05404C49.5462 9.05404 48.7876 9.3006 48.1578 9.75837L5.95602 40.1394L4.11408 37.3936ZM24.152 76.4932V100.65H16.0998C15.032 100.65 14.008 100.226 13.2529 99.4707C12.4979 98.7157 12.0737 97.6916 12.0737 96.6238V40.6971L50.3218 13.1564L88.5699 40.6971V64.4149H36.2304C33.028 64.4181 29.9577 65.6917 27.6932 67.9561C25.4288 70.2205 24.1552 73.2908 24.152 76.4932ZM108.7 108.702C108.7 110.838 107.852 112.886 106.342 114.396C104.832 115.906 102.784 116.754 100.648 116.754H36.2304C34.0948 116.754 32.0467 115.906 30.5366 114.396C29.0265 112.886 28.1782 110.838 28.1782 108.702V76.4932C28.1782 74.3577 29.0265 72.3095 30.5366 70.7995C32.0467 69.2894 34.0948 68.441 36.2304 68.441H100.648C102.784 68.441 104.832 69.2894 106.342 70.7995C107.852 72.3095 108.7 74.3577 108.7 76.4932V108.702ZM116.753 100.65C116.753 101.184 116.541 101.696 116.163 102.073C115.786 102.451 115.274 102.663 114.74 102.663H112.727V82.5324H114.74C115.274 82.5324 115.786 82.7445 116.163 83.122C116.541 83.4995 116.753 84.0116 116.753 84.5455V100.65Z" fill="#101D42"/>
</svg>
