<svg width="21" height="21" viewBox="0 0 21 21" fill="none" xmlns="http://www.w3.org/2000/svg">
<path d="M7.70026 12.6005H6.65022C6.46456 12.6005 6.28651 12.6742 6.15523 12.8055C6.02395 12.9368 5.9502 13.1148 5.9502 13.3005V18.9007C5.9502 19.0864 6.02395 19.2644 6.15523 19.3957C6.28651 19.527 6.46456 19.6007 6.65022 19.6007H7.70026C7.88592 19.6007 8.06398 19.527 8.19526 19.3957C8.32654 19.2644 8.40029 19.0864 8.40029 18.9007V13.3005C8.40029 13.1148 8.32654 12.9368 8.19526 12.8055C8.06398 12.6742 7.88592 12.6005 7.70026 12.6005ZM6.65022 18.9007V13.3005H7.70026V18.9007H6.65022Z" fill="#00C1D9"/>
<path d="M10.8507 12.6005H9.80061C9.61495 12.6005 9.4369 12.6742 9.30562 12.8055C9.17434 12.9368 9.10059 13.1148 9.10059 13.3005V18.9007C9.10059 19.0864 9.17434 19.2644 9.30562 19.3957C9.4369 19.527 9.61495 19.6007 9.80061 19.6007H10.8507C11.0363 19.6007 11.2144 19.527 11.3456 19.3957C11.4769 19.2644 11.5507 19.0864 11.5507 18.9007V13.3005C11.5507 13.1148 11.4769 12.9368 11.3456 12.8055C11.2144 12.6742 11.0363 12.6005 10.8507 12.6005ZM9.80061 18.9007V13.3005H10.8507V18.9007H9.80061Z" fill="#00C1D9"/>
<path d="M14.0003 12.6005H12.9503C12.7646 12.6005 12.5866 12.6742 12.4553 12.8055C12.324 12.9368 12.2502 13.1148 12.2502 13.3005V18.9007C12.2502 19.0864 12.324 19.2644 12.4553 19.3957C12.5866 19.527 12.7646 19.6007 12.9503 19.6007H14.0003C14.186 19.6007 14.364 19.527 14.4953 19.3957C14.6266 19.2644 14.7003 19.0864 14.7003 18.9007V13.3005C14.7003 13.1148 14.6266 12.9368 14.4953 12.8055C14.364 12.6742 14.186 12.6005 14.0003 12.6005ZM12.9503 18.9007V13.3005H14.0003V18.9007H12.9503Z" fill="#00C1D9"/>
<path d="M19.95 13.65H19.5999V13.3C19.5994 12.7432 19.378 12.2094 18.9842 11.8156C18.5905 11.4219 18.0567 11.2005 17.4999 11.1999H16.0998V7.57938C16.1699 7.62975 16.2494 7.66548 16.3336 7.68442C16.4178 7.70337 16.5049 7.70514 16.5898 7.68963C16.6769 7.67409 16.7598 7.64105 16.8337 7.59249C16.9076 7.54394 16.9708 7.48089 17.0196 7.40717L17.3889 6.85625C17.4826 6.71525 17.5184 6.54362 17.4889 6.37694C17.4595 6.21025 17.367 6.06129 17.2307 5.96092L9.12684 0.122343C9.01724 0.0428226 8.88529 0 8.74988 0C8.61447 0 8.48252 0.0428226 8.37291 0.122343L5.94942 1.86786V1.63055C5.94914 1.38371 5.85096 1.14706 5.67642 0.972516C5.50188 0.797973 5.26523 0.699793 5.01839 0.699515H4.08035C3.83351 0.699793 3.59686 0.797973 3.42232 0.972516C3.24777 1.14706 3.14959 1.38371 3.14931 1.63055V3.88464L0.268704 5.96092C0.132318 6.06112 0.0397322 6.20998 0.0101461 6.37661C-0.0194399 6.54324 0.0162439 6.71487 0.109798 6.8559L0.479412 7.40717C0.539319 7.49711 0.620498 7.57087 0.715746 7.62192C0.810995 7.67296 0.917369 7.69971 1.02543 7.69978C1.15959 7.69954 1.2903 7.65731 1.39925 7.57903V16.8001C1.39925 17.1715 1.54675 17.5276 1.80931 17.7901C2.07187 18.0527 2.42798 18.2002 2.7993 18.2002H4.19935V18.9002C4.19991 19.457 4.42135 19.9909 4.81507 20.3846C5.20879 20.7783 5.74263 20.9997 6.29944 21.0003H17.4999C18.0567 20.9997 18.5905 20.7783 18.9842 20.3846C19.378 19.9909 19.5994 19.457 19.5999 18.9002V18.5502H19.95C20.2284 18.5502 20.4955 18.4396 20.6924 18.2427C20.8894 18.0457 21 17.7786 21 17.5002V14.7001C21 14.4216 20.8894 14.1545 20.6924 13.9576C20.4955 13.7606 20.2284 13.65 19.95 13.65ZM3.84934 1.63055C3.84901 1.60012 3.85476 1.56994 3.86626 1.54176C3.87775 1.51359 3.89475 1.48799 3.91627 1.46647C3.93779 1.44496 3.96338 1.42795 3.99156 1.41646C4.01974 1.40497 4.04992 1.39921 4.08035 1.39954H5.01839C5.04881 1.39921 5.079 1.40497 5.10718 1.41646C5.13535 1.42795 5.16095 1.44496 5.18246 1.46647C5.20398 1.48799 5.22098 1.51359 5.23248 1.54176C5.24397 1.56994 5.24972 1.60012 5.24939 1.63055V2.37223L3.84934 3.38097V1.63055ZM0.715321 6.50169L8.74953 0.713166L16.7844 6.50239L16.4747 6.98716L9.12684 1.6967C9.01733 1.61711 8.88543 1.57424 8.75005 1.57424C8.61468 1.57424 8.48277 1.61711 8.37326 1.6967L1.03558 6.97911L0.715321 6.50169ZM4.19935 13.3V17.5002H2.7993C2.61364 17.5002 2.43559 17.4264 2.30431 17.2951C2.17303 17.1638 2.09927 16.9858 2.09927 16.8001V7.07606L8.74953 2.28753L15.3998 7.07606V11.1999H6.29944C5.74263 11.2005 5.20879 11.4219 4.81507 11.8156C4.42135 12.2094 4.19991 12.7432 4.19935 13.3ZM18.8999 18.9002C18.8999 19.2715 18.7524 19.6276 18.4899 19.8902C18.2273 20.1528 17.8712 20.3003 17.4999 20.3003H6.29944C5.92812 20.3003 5.57201 20.1528 5.30945 19.8902C5.04689 19.6276 4.89938 19.2715 4.89938 18.9002V13.3C4.89938 12.9287 5.04689 12.5726 5.30945 12.31C5.57201 12.0475 5.92812 11.8999 6.29944 11.8999H17.4999C17.8712 11.8999 18.2273 12.0475 18.4899 12.31C18.7524 12.5726 18.8999 12.9287 18.8999 13.3V18.9002ZM20.3 17.5002C20.3 17.593 20.2631 17.682 20.1975 17.7477C20.1318 17.8133 20.0428 17.8502 19.95 17.8502H19.5999V14.35H19.95C20.0428 14.35 20.1318 14.3869 20.1975 14.4526C20.2631 14.5182 20.3 14.6072 20.3 14.7001V17.5002Z" fill="#00C1D9"/>
</svg>
