<svg width="41" height="32" viewBox="0 0 41 32" fill="none" xmlns="http://www.w3.org/2000/svg">
<path d="M3.125 3.125L16.1037 12.9261L16.1081 12.9297C17.5492 13.9865 18.2702 14.5152 19.0599 14.7195C19.7579 14.9 20.4916 14.9 21.1896 14.7195C21.98 14.515 22.7031 13.9848 24.1467 12.9261C24.1467 12.9261 32.4714 6.53762 37.125 3.125M1 23.9504V7.80041C1 5.42019 1 4.22919 1.46322 3.32007C1.87068 2.52038 2.52038 1.87068 3.32007 1.46322C4.22919 1 5.42019 1 7.80042 1H32.4504C34.8306 1 36.0191 1 36.9282 1.46322C37.7279 1.87068 38.3798 2.52038 38.7872 3.32007C39.25 4.2283 39.25 5.41786 39.25 7.79343V23.9576C39.25 26.3332 39.25 27.521 38.7872 28.4292C38.3798 29.2289 37.7279 29.8798 36.9282 30.2872C36.02 30.75 34.8321 30.75 32.4566 30.75H7.79343C5.41786 30.75 4.2283 30.75 3.32007 30.2872C2.52038 29.8798 1.87068 29.2289 1.46322 28.4292C1 27.5201 1 26.3306 1 23.9504Z" stroke="#101D42" stroke-width="2" stroke-linecap="round" stroke-linejoin="round"/>
</svg>
